<svg width="47" height="59" viewBox="0 0 47 59" fill="none" xmlns="http://www.w3.org/2000/svg">
<path fill-rule="evenodd" clip-rule="evenodd" d="M5.04555 30.5727C2.25863 30.5727 0 28.4223 0 25.7819V21.418C0 18.7696 2.25863 16.6272 5.04555 16.6272C5.51259 16.6272 5.88775 16.983 5.88775 17.4257V29.7663C5.88775 30.209 5.51259 30.5727 5.04555 30.5727ZM4.20335 18.3348C2.75629 18.6906 1.69206 19.9397 1.69206 21.418V25.7819C1.69206 27.2602 2.75629 28.5093 4.20335 28.8651V18.3348Z" fill="#5F4BDB"/>
<path d="M6.6455 29.7663V17.6233C7.46473 17.6233 8.12318 18.2558 8.12318 19.0305V28.367C8.12318 29.1418 7.46473 29.7663 6.6455 29.7663Z" fill="#5F4BDB"/>
<path d="M22.6266 59V50.4861C13.5938 50.0714 6.38263 43.2634 6.38263 34.9686C6.38263 34.5069 6.77405 34.1313 7.2558 34.1313C7.73755 34.1313 8.12897 34.5069 8.12897 34.9686C8.12897 42.6139 15.024 48.835 23.4998 48.835C31.9681 48.835 38.8631 42.6139 38.8631 34.9686C38.8631 34.5069 39.2546 34.1313 39.7363 34.1313C40.2181 34.1313 40.617 34.5069 40.617 34.9686C40.617 43.2634 33.4058 50.0714 24.373 50.4861V59H22.6266ZM23.4998 45.2354C16.9209 45.2354 11.569 40.3133 11.3055 34.0296C11.2905 33.5679 11.6593 33.1845 12.1486 33.161C12.6228 33.0906 13.0368 33.5053 13.0519 33.967C13.2777 39.3429 17.8618 43.5608 23.4998 43.5608C28.8216 43.5608 33.2176 39.7968 33.865 34.8356H18.3662C17.8844 34.8356 17.493 34.46 17.493 33.9983C17.493 33.5366 17.8844 33.161 18.3662 33.161H34.7683C35.3328 33.1845 35.7167 33.4897 35.6866 34.1548C35.3629 40.3759 30.0336 45.2354 23.4998 45.2354ZM34.8285 30.2578H12.2991C11.8174 30.2578 11.426 29.8822 11.426 29.4205C11.426 28.9588 11.8174 28.5832 12.2991 28.5832H34.8285C35.3102 28.5832 35.7016 28.9588 35.7016 29.4205C35.7016 29.8822 35.3102 30.2578 34.8285 30.2578ZM34.8285 25.6722H12.2991C11.8174 25.6722 11.426 25.2966 11.426 24.8349C11.426 24.3732 11.8174 23.9976 12.2991 23.9976H34.8285C35.3102 23.9976 35.7016 24.3732 35.7016 24.8349C35.7016 25.2966 35.3102 25.6722 34.8285 25.6722ZM34.8285 21.0866C34.3392 21.0866 33.9478 20.711 33.9478 20.2493C33.9478 14.7403 29.2582 10.2565 23.4998 10.2565C18.0274 10.2565 13.5261 14.2943 13.082 19.4198H28.6259C29.1077 19.4198 29.4991 19.7876 29.4991 20.2493C29.4991 20.711 29.1077 21.0866 28.6259 21.0866H12.1712C11.6894 21.0866 11.298 20.711 11.298 20.2493C11.298 13.817 16.7704 8.58185 23.4998 8.58185C30.2293 8.58185 35.7016 13.817 35.7016 20.2493C35.7016 20.711 35.3102 21.0866 34.8285 21.0866Z" fill="#5F4BDB"/>
<path d="M38.8765 28.3671V19.0306C38.8765 18.2559 39.5426 17.6234 40.3541 17.6234V29.7664C39.5426 29.7664 38.8765 29.1418 38.8765 28.3671Z" fill="#5F4BDB"/>
<path fill-rule="evenodd" clip-rule="evenodd" d="M41.9621 30.5727C41.4951 30.5727 41.1123 30.2091 41.1123 29.7664V17.4258C41.1123 16.9831 41.4951 16.6273 41.9621 16.6273C44.7414 16.6273 47 18.7697 47 21.4181V25.782C47 28.4224 44.7414 30.5727 41.9621 30.5727ZM42.8043 18.3349V28.8651C44.2437 28.5094 45.3156 27.2603 45.3156 25.782V21.4181C45.3156 19.9397 44.2437 18.6907 42.8043 18.3349Z" fill="#5F4BDB"/>
<path d="M40.3949 15.0182H40.335C39.9161 15.0182 39.572 14.7093 39.5346 14.3155C39.1831 10.439 35.9665 1.83659 24.1999 1.57404C19.6818 1.47365 15.9416 2.76324 13.0916 5.40419C10.1219 8.16097 8.85024 11.744 8.61835 13.9139C8.57347 14.3077 8.23686 14.6089 7.82544 14.6089H7.76559C7.30181 14.6089 6.92779 14.2305 6.9652 13.7904C7.24197 11.049 8.82032 7.17254 11.9396 4.28448C15.1188 1.33465 19.2404 -0.109377 24.2373 0.00645376C36.0338 0.269004 40.7764 8.53163 41.1953 14.2074C41.2252 14.6475 40.8587 15.0182 40.3949 15.0182Z" fill="#5F4BDB"/>
</svg>
