<svg width="21" height="11" viewBox="0 0 21 11" fill="none" xmlns="http://www.w3.org/2000/svg">
<path d="M19.6604 2.75084L10.6605 10.7508C10.478 10.9111 10.2434 10.9996 10.0005 10.9996C9.75754 10.9996 9.52294 10.9111 9.34045 10.7508L0.340451 2.75084C0.154618 2.57235 0.0448569 2.32901 0.0340529 2.07157C0.0232489 1.81412 0.112236 1.56245 0.28246 1.36901C0.452684 1.17557 0.691005 1.05531 0.947733 1.03329C1.20446 1.01128 1.45978 1.08921 1.66045 1.25084L10.0005 8.66083L18.3405 1.25084C18.4378 1.15733 18.5531 1.0845 18.6793 1.03673C18.8056 0.988971 18.9402 0.967265 19.0751 0.972925C19.21 0.978586 19.3423 1.01149 19.4641 1.06967C19.5859 1.12784 19.6947 1.21008 19.7839 1.31142C19.8731 1.41276 19.9408 1.5311 19.983 1.65932C20.0252 1.78755 20.041 1.92299 20.0295 2.05748C20.018 2.19198 19.9793 2.32275 19.9159 2.44191C19.8525 2.56108 19.7656 2.66616 19.6604 2.75084Z" fill="#5F4BDB"/>
</svg>
