<svg width="20" height="20" viewBox="0 0 20 20" fill="none" xmlns="http://www.w3.org/2000/svg">
<path d="M0.999695 3.99988H11.9997C11.9997 4.53031 12.2104 5.03902 12.5855 5.41409C12.9606 5.78916 13.4693 5.99988 13.9997 5.99988H15.9997C16.5301 5.99988 17.0388 5.78916 17.4139 5.41409C17.789 5.03902 17.9997 4.53031 17.9997 3.99988H18.9997C19.2649 3.99988 19.5193 3.89452 19.7068 3.70698C19.8943 3.51945 19.9997 3.26509 19.9997 2.99988C19.9997 2.73466 19.8943 2.48031 19.7068 2.29277C19.5193 2.10523 19.2649 1.99988 18.9997 1.99988H17.9997C17.9997 1.46944 17.789 0.960737 17.4139 0.585664C17.0388 0.210592 16.5301 -0.00012207 15.9997 -0.00012207H13.9997C13.4693 -0.00012207 12.9606 0.210592 12.5855 0.585664C12.2104 0.960737 11.9997 1.46944 11.9997 1.99988H0.999695C0.734478 1.99988 0.480124 2.10523 0.292588 2.29277C0.105052 2.48031 -0.000305176 2.73466 -0.000305176 2.99988C-0.000305176 3.26509 0.105052 3.51945 0.292588 3.70698C0.480124 3.89452 0.734478 3.99988 0.999695 3.99988V3.99988ZM13.9997 1.99988H15.9997V2.99988V3.99988H13.9997V1.99988ZM18.9997 8.99988H9.99969C9.99969 8.46944 9.78898 7.96074 9.41391 7.58566C9.03884 7.21059 8.53013 6.99988 7.99969 6.99988H5.99969C5.46926 6.99988 4.96055 7.21059 4.58548 7.58566C4.21041 7.96074 3.99969 8.46944 3.99969 8.99988H0.999695C0.734478 8.99988 0.480124 9.10523 0.292588 9.29277C0.105052 9.48031 -0.000305176 9.73466 -0.000305176 9.99988C-0.000305176 10.2651 0.105052 10.5194 0.292588 10.707C0.480124 10.8945 0.734478 10.9999 0.999695 10.9999H3.99969C3.99969 11.5303 4.21041 12.039 4.58548 12.4141C4.96055 12.7892 5.46926 12.9999 5.99969 12.9999H7.99969C8.53013 12.9999 9.03884 12.7892 9.41391 12.4141C9.78898 12.039 9.99969 11.5303 9.99969 10.9999H18.9997C19.2649 10.9999 19.5193 10.8945 19.7068 10.707C19.8943 10.5194 19.9997 10.2651 19.9997 9.99988C19.9997 9.73466 19.8943 9.48031 19.7068 9.29277C19.5193 9.10523 19.2649 8.99988 18.9997 8.99988ZM5.99969 10.9999V8.99988H7.99969V9.99988V10.9999H5.99969ZM18.9997 15.9999H15.9997C15.9997 15.4694 15.789 14.9607 15.4139 14.5857C15.0388 14.2106 14.5301 13.9999 13.9997 13.9999H11.9997C11.4693 13.9999 10.9606 14.2106 10.5855 14.5857C10.2104 14.9607 9.99969 15.4694 9.99969 15.9999H0.999695C0.734478 15.9999 0.480124 16.1052 0.292588 16.2928C0.105052 16.4803 -0.000305176 16.7347 -0.000305176 16.9999C-0.000305176 17.2651 0.105052 17.5194 0.292588 17.707C0.480124 17.8945 0.734478 17.9999 0.999695 17.9999H9.99969C9.99969 18.5303 10.2104 19.039 10.5855 19.4141C10.9606 19.7892 11.4693 19.9999 11.9997 19.9999H13.9997C14.5301 19.9999 15.0388 19.7892 15.4139 19.4141C15.789 19.039 15.9997 18.5303 15.9997 17.9999H18.9997C19.2649 17.9999 19.5193 17.8945 19.7068 17.707C19.8943 17.5194 19.9997 17.2651 19.9997 16.9999C19.9997 16.7347 19.8943 16.4803 19.7068 16.2928C19.5193 16.1052 19.2649 15.9999 18.9997 15.9999ZM11.9997 17.9999V15.9999H13.9997V16.9999V17.9999H11.9997Z" fill="#5F4BDB"/>
</svg>
