<svg width="22" height="22" viewBox="0 0 22 22" fill="none" xmlns="http://www.w3.org/2000/svg">
<path d="M20.71 19.2901L17.88 16.4701C19.4141 14.5748 20.1626 12.163 19.9709 9.73209C19.7792 7.30119 18.662 5.03653 16.8497 3.40507C15.0375 1.77362 12.6683 0.899774 10.2306 0.963727C7.79304 1.02768 5.47291 2.02456 3.74867 3.7488C2.02444 5.47304 1.02756 7.79317 0.963605 10.2308C0.899651 12.6684 1.7735 15.0376 3.40495 16.8499C5.0364 18.6621 7.30107 19.7793 9.73197 19.971C12.1629 20.1627 14.5746 19.4143 16.47 17.8801L19.29 20.7101C19.3829 20.8038 19.4935 20.8782 19.6154 20.929C19.7373 20.9798 19.868 21.0059 20 21.0059C20.132 21.0059 20.2627 20.9798 20.3845 20.929C20.5064 20.8782 20.617 20.8038 20.71 20.7101C20.8037 20.6171 20.8781 20.5065 20.9289 20.3847C20.9796 20.2628 21.0058 20.1321 21.0058 20.0001C21.0058 19.8681 20.9796 19.7374 20.9289 19.6155C20.8781 19.4937 20.8037 19.3831 20.71 19.2901ZM2.99997 10.5001C2.99997 9.01673 3.43984 7.56668 4.26395 6.33331C5.08806 5.09995 6.2594 4.13865 7.62984 3.57099C9.00029 3.00334 10.5083 2.85481 11.9631 3.1442C13.418 3.43359 14.7544 4.1479 15.8033 5.19679C16.8522 6.24568 17.5665 7.58206 17.8559 9.03691C18.1452 10.4918 17.9967 11.9998 17.4291 13.3702C16.8614 14.7407 15.9001 15.912 14.6667 16.7361C13.4334 17.5602 11.9833 18.0001 10.5 18.0001C8.51085 18.0001 6.60319 17.2099 5.19667 15.8034C3.79014 14.3969 2.99997 12.4892 2.99997 10.5001Z" fill="#5F4BDB"/>
</svg>
