<svg width="22" height="22" viewBox="0 0 22 22" fill="none" xmlns="http://www.w3.org/2000/svg">
<path d="M20.7101 19.2901L17.8801 16.4701C19.4143 14.5748 20.1627 12.163 19.971 9.73209C19.7793 7.30119 18.6621 5.03653 16.8499 3.40507C15.0376 1.77362 12.6684 0.899774 10.2308 0.963727C7.79317 1.02768 5.47304 2.02456 3.7488 3.7488C2.02456 5.47304 1.02768 7.79317 0.963727 10.2308C0.899774 12.6684 1.77362 15.0376 3.40507 16.8499C5.03653 18.6621 7.30119 19.7793 9.73209 19.971C12.163 20.1627 14.5748 19.4143 16.4701 17.8801L19.2901 20.7101C19.3831 20.8038 19.4937 20.8782 19.6155 20.929C19.7374 20.9798 19.8681 21.0059 20.0001 21.0059C20.1321 21.0059 20.2628 20.9798 20.3847 20.929C20.5065 20.8782 20.6171 20.8038 20.7101 20.7101C20.8038 20.6171 20.8782 20.5065 20.929 20.3847C20.9798 20.2628 21.0059 20.1321 21.0059 20.0001C21.0059 19.8681 20.9798 19.7374 20.929 19.6155C20.8782 19.4937 20.8038 19.3831 20.7101 19.2901V19.2901ZM3.00009 10.5001C3.00009 9.01673 3.43996 7.56668 4.26407 6.33331C5.08818 5.09995 6.25952 4.13865 7.62997 3.57099C9.00041 3.00334 10.5084 2.85481 11.9633 3.1442C13.4181 3.43359 14.7545 4.1479 15.8034 5.19679C16.8523 6.24568 17.5666 7.58206 17.856 9.03691C18.1454 10.4918 17.9968 11.9998 17.4292 13.3702C16.8615 14.7407 15.9002 15.912 14.6669 16.7361C13.4335 17.5602 11.9835 18.0001 10.5001 18.0001C8.51097 18.0001 6.60331 17.2099 5.19679 15.8034C3.79027 14.3969 3.00009 12.4892 3.00009 10.5001V10.5001Z" fill="white"/>
</svg>
