<svg width="24" height="21" viewBox="0 0 24 21" fill="none" xmlns="http://www.w3.org/2000/svg">
<path fill-rule="evenodd" clip-rule="evenodd" d="M20 3.88889H4C3.44772 3.88889 3 4.31174 3 4.83333V16.1667C3 16.6883 3.44772 17.1111 4 17.1111H20C20.5523 17.1111 21 16.6883 21 16.1667V4.83333C21 4.31174 20.5523 3.88889 20 3.88889ZM4 2C2.34315 2 1 3.26853 1 4.83333V16.1667C1 17.7315 2.34315 19 4 19H20C21.6569 19 23 17.7315 23 16.1667V4.83333C23 3.26853 21.6569 2 20 2H4Z" fill="white"/>
<path fill-rule="evenodd" clip-rule="evenodd" d="M5.2318 5.39378C5.58537 4.92948 6.21593 4.86676 6.6402 5.25367L11.3598 9.55768C11.7307 9.89583 12.2693 9.89583 12.6402 9.55768L17.3598 5.25367C17.7841 4.86676 18.4147 4.92948 18.7682 5.39378C19.1218 5.85808 19.0645 6.54812 18.6402 6.93504L13.9205 11.239C12.808 12.2537 11.192 12.2537 10.0794 11.239L5.35984 6.93504C4.93556 6.54812 4.87824 5.85808 5.2318 5.39378V5.39378Z" fill="white"/>
</svg>
