<svg width="24" height="24" viewBox="0 0 24 24" fill="none" xmlns="http://www.w3.org/2000/svg">
<path fill-rule="evenodd" clip-rule="evenodd" d="M4.58176 2.85753C5.84151 1.59777 7.92496 1.74584 8.99389 3.17109L10.7683 5.5369C11.6424 6.70241 11.5265 8.33334 10.4963 9.36352L9.18811 10.6717C9.31489 11.0017 9.73225 11.7258 11.0032 12.9968C12.2741 14.2677 12.9983 14.6851 13.3283 14.8119L14.6365 13.5037C15.6667 12.4735 17.2976 12.3576 18.4631 13.2318L20.8289 15.0061C22.2541 16.0751 22.4023 18.1585 21.1424 19.4183C20.7329 19.8278 20.6636 19.8971 19.9801 20.5806C19.2835 21.2772 17.8046 21.9282 16.307 21.9933C13.9637 22.0952 10.7808 21.0548 6.86301 17.137C2.9453 13.2193 1.90478 10.0363 2.00667 7.69294C2.06335 6.3894 2.47778 4.9577 3.42487 4.02532C4.10289 3.3364 4.19107 3.24822 4.58176 2.85753V2.85753ZM3.95652 7.77772C3.8859 9.40207 4.57047 12.0844 8.24308 15.757C11.9157 19.4296 14.5979 20.1141 16.2223 20.0435C17.7386 19.9775 18.5521 19.2448 18.6001 19.2005L19.7624 18.0382C20.1823 17.6183 20.133 16.9238 19.6579 16.5675L17.292 14.7931C16.9035 14.5017 16.3599 14.5404 16.0165 14.8838C15.4992 15.4012 15.1459 15.7595 14.4547 16.4483C13.0186 17.879 10.5603 15.314 9.62314 14.3769C8.76187 13.5156 6.13717 10.9793 7.55033 9.54938C7.55313 9.54657 7.93376 9.16594 9.11624 7.98346C9.45963 7.64007 9.49828 7.09642 9.2069 6.70792L7.43253 4.34211C7.07622 3.86702 6.38173 3.81767 5.96183 4.23758C5.57533 4.62407 5.13794 5.06146 4.80065 5.40109C4.10646 6.10008 3.99367 6.92327 3.95652 7.77772V7.77772Z" fill="white"/>
</svg>
