<svg width="97" height="97" viewBox="0 0 97 97" fill="none" xmlns="http://www.w3.org/2000/svg">
<circle opacity="0.5" cx="48.4605" cy="48.4605" r="48.4605" fill="url(#paint0_linear_434_257)" fill-opacity="0.5"/>
<g clip-path="url(#clip0_434_257)">
<path d="M58.6082 69.3828L59.8746 71.7187L60.9369 74.3025C61.1521 74.8261 61.6623 75.1679 62.2283 75.1679H67.5104C68.0766 75.1679 68.5866 74.8261 68.8018 74.3025L69.8641 71.7187L71.104 69.3828H58.6082Z" fill="#B3ADB5"/>
<path d="M28.5704 69.1667L29.5982 71.7187L30.6605 74.3025C30.8758 74.8261 31.3859 75.1679 31.9519 75.1679H37.234C37.8002 75.1679 38.3102 74.8261 38.5255 74.3025L39.5878 71.7187L41.0989 69.1667H28.5704Z" fill="#B3ADB5"/>
<path d="M24.0631 69.5931C24.0631 70.767 25.0147 71.7186 26.1886 71.7186H71.8888C73.0626 71.7186 74.0142 70.767 74.0142 69.5931V22.9578C74.0142 21.7839 73.0627 20.8323 71.8888 20.8323H26.1886C25.0148 20.8323 24.0631 21.7838 24.0631 22.9578V69.5931Z" fill="#B3ADB5"/>
<path d="M34.0419 66.1172C32.4815 66.1172 31.2165 64.8523 31.2165 63.2918V21.0519C31.2165 20.9779 31.2202 20.9048 31.2258 20.8323H26.1886C25.0148 20.8323 24.0631 21.7838 24.0631 22.9578V69.5931C24.0631 70.767 25.0148 71.7186 26.1886 71.7186H71.8888C73.0626 71.7186 74.0142 70.767 74.0142 69.5931V66.1172H34.0419Z" fill="#A59CA6"/>
<path d="M28.7457 68.1167H69.3316C69.9285 68.1167 70.4124 67.6328 70.4124 67.0359V25.5149C70.4124 24.918 69.9285 24.4341 69.3316 24.4341H28.7457C28.1488 24.4341 27.6649 24.918 27.6649 25.5149V67.0359C27.665 67.6328 28.1488 68.1167 28.7457 68.1167Z" fill="#F8F7F8"/>
<path d="M34.0419 66.1172C32.4815 66.1172 31.2165 64.8522 31.2165 63.2918V24.4341H28.7457C28.1488 24.4341 27.6649 24.918 27.6649 25.5149V67.0359C27.6649 67.6328 28.1488 68.1167 28.7457 68.1167H69.3316C69.9285 68.1167 70.4124 67.6328 70.4124 67.0359V66.1172H34.0419Z" fill="#EFEDEE"/>
<path d="M27.8849 47.9396H23.5753C22.6974 47.9396 21.9858 47.2279 21.9858 46.3501V46.2006C21.9858 45.3227 22.6974 44.6111 23.5753 44.6111H27.8849C28.7627 44.6111 29.4744 45.3227 29.4744 46.2006V46.3501C29.4745 47.2279 28.7628 47.9396 27.8849 47.9396Z" fill="#E4E1E5"/>
<path d="M27.8849 39.6382H23.5753C22.6974 39.6382 21.9858 38.9265 21.9858 38.0487V37.8991C21.9858 37.0212 22.6974 36.3096 23.5753 36.3096H27.8849C28.7627 36.3096 29.4744 37.0212 29.4744 37.8991V38.0487C29.4745 38.9264 28.7628 39.6382 27.8849 39.6382Z" fill="#E4E1E5"/>
<path d="M27.8849 52.9126H23.5753C22.6974 52.9126 21.9858 53.6242 21.9858 54.5021V54.6517C21.9858 55.5296 22.6974 56.2412 23.5753 56.2412H27.8849C28.7627 56.2412 29.4744 55.5296 29.4744 54.6517V54.5021C29.4745 53.6242 28.7628 52.9126 27.8849 52.9126Z" fill="#E4E1E5"/>
<path d="M49.6913 61.9446C57.9426 61.9446 64.6315 55.2557 64.6315 47.0044C64.6315 38.7532 57.9426 32.0642 49.6913 32.0642C41.4401 32.0642 34.7511 38.7532 34.7511 47.0044C34.7511 55.2557 41.4401 61.9446 49.6913 61.9446Z" fill="#FCF0B6"/>
<path d="M40.8174 46.9178C40.8174 39.7805 45.8234 33.8115 52.5149 32.33C51.6008 32.1552 50.6565 32.0642 49.6913 32.0642C41.4401 32.0642 34.7511 38.7532 34.7511 47.0044C34.7511 55.2557 41.4401 61.9446 49.6913 61.9446C50.8053 61.9446 51.8891 61.8231 52.9335 61.5919C46.032 60.2722 40.8174 54.2039 40.8174 46.9178Z" fill="#FBE88C"/>
<path d="M49.6913 58.2305C55.8913 58.2305 60.9174 53.2044 60.9174 47.0044C60.9174 40.8044 55.8913 35.7783 49.6913 35.7783C43.4913 35.7783 38.4652 40.8044 38.4652 47.0044C38.4652 53.2044 43.4913 58.2305 49.6913 58.2305Z" fill="#F5C374"/>
<path d="M44.8575 57.1353C42.3503 54.4634 40.8174 50.871 40.8174 46.9178C40.8174 43.1191 42.2354 39.6519 44.5706 37.0161C40.9485 38.8806 38.4652 42.658 38.4652 47.0046C38.4654 51.4662 41.0785 55.3264 44.8575 57.1353Z" fill="#F3B658"/>
<path d="M71.8887 20H66.9308C66.4711 20 66.0985 20.3725 66.0985 20.8323C66.0985 21.292 66.4711 21.6645 66.9308 21.6645H71.8887C72.6018 21.6645 73.1819 22.2448 73.1819 22.9577V69.5931C73.1819 70.3062 72.6018 70.8864 71.8887 70.8864H26.1886C25.4755 70.8864 24.8954 70.3061 24.8954 69.5931V57.0735H26.8326V68.1168C26.8326 68.5766 27.2053 68.9491 27.6649 68.9491H60.9174C61.377 68.9491 61.7497 68.5766 61.7497 68.1168C61.7497 67.6571 61.377 67.2846 60.9174 67.2846H28.4972V56.9949C29.537 56.7229 30.3066 55.7756 30.3066 54.6517V54.5021C30.3066 53.3782 29.5369 52.4309 28.4972 52.1589V48.6934C29.537 48.4214 30.3066 47.4741 30.3066 46.3502V46.2006C30.3066 45.0767 29.5369 44.1294 28.4972 43.8574V40.3919C29.537 40.1199 30.3066 39.1725 30.3066 38.0486V37.8992C30.3066 36.7753 29.5369 35.828 28.4972 35.556V25.2663H69.5801V67.2844H64.4642C64.0045 67.2844 63.6319 67.657 63.6319 68.1167C63.6319 68.5764 64.0045 68.949 64.4642 68.949H70.4124C70.872 68.949 71.2447 68.5764 71.2447 68.1167V24.4341C71.2447 23.9743 70.872 23.6018 70.4124 23.6018H27.6649C27.2053 23.6018 26.8326 23.9743 26.8326 24.4341V35.4774H24.8954V22.9577C24.8954 22.2448 25.4756 21.6645 26.1886 21.6645H63.384C63.8436 21.6645 64.2163 21.292 64.2163 20.8323C64.2163 20.3725 63.8436 20 63.384 20H26.1886C24.5578 20 23.2308 21.3268 23.2308 22.9577V35.5023C22.0581 35.67 21.1535 36.6807 21.1535 37.8992V38.0488C21.1535 39.2672 22.0581 40.2779 23.2308 40.4457V43.8039C22.0581 43.9717 21.1535 44.9824 21.1535 46.2008V46.3504C21.1535 47.5688 22.0581 48.5795 23.2308 48.7473V52.1055C22.0581 52.2733 21.1535 53.284 21.1535 54.5025V54.652C21.1535 55.8705 22.0581 56.8812 23.2308 57.049V69.5936C23.2308 71.2245 24.5577 72.5513 26.1886 72.5513H29.0406L29.8908 74.6192C30.2357 75.4584 31.0448 76.0004 31.952 76.0004H37.2341C38.1413 76.0004 38.9504 75.4583 39.2954 74.6192L40.1456 72.5513H59.317L60.1673 74.6192C60.5122 75.4584 61.3212 76.0004 62.2285 76.0004H67.5106C68.4178 76.0004 69.2268 75.4583 69.5718 74.6192L70.4221 72.5513H71.8891C73.52 72.5513 74.8468 71.2245 74.8468 69.5936V22.9577C74.8465 21.3268 73.5196 20 71.8887 20V20ZM26.8326 48.772V52.0802H24.8954V48.772H26.8326ZM26.8326 40.4705V43.7788H24.8954V40.4705H26.8326ZM22.818 38.0486V37.8992C22.818 37.4816 23.1578 37.1419 23.5753 37.1419H27.8848C28.3024 37.1419 28.6421 37.4817 28.6421 37.8992V38.0488C28.6421 38.4663 28.3023 38.806 27.8848 38.806H23.5753C23.1578 38.806 22.818 38.4662 22.818 38.0486ZM22.818 46.3502V46.2006C22.818 45.783 23.1578 45.4433 23.5753 45.4433H27.8848C28.3024 45.4433 28.6421 45.7831 28.6421 46.2006V46.3502C28.6421 46.7678 28.3023 47.1074 27.8848 47.1074H23.5753C23.1578 47.1074 22.818 46.7678 22.818 46.3502ZM22.818 54.6517V54.5021C22.818 54.0846 23.1578 53.7449 23.5753 53.7449H27.8848C28.3024 53.7449 28.6421 54.0847 28.6421 54.5021V54.6517C28.6421 55.0693 28.3023 55.409 27.8848 55.409H23.5753C23.1578 55.409 22.818 55.0692 22.818 54.6517ZM37.7558 73.9859C37.6685 74.1983 37.4637 74.3355 37.234 74.3355H31.9519C31.7223 74.3355 31.5175 74.1983 31.4302 73.9859L30.8403 72.5509H38.3457L37.7558 73.9859ZM68.0321 73.9859C67.9448 74.1983 67.7401 74.3355 67.5104 74.3355H62.2283C61.9987 74.3355 61.7938 74.1983 61.7065 73.9859L61.1166 72.5509H68.622L68.0321 73.9859Z" fill="black"/>
<path d="M37.0942 38.9268C36.6944 38.7001 36.1864 38.8408 35.9599 39.2406C34.6246 41.5976 33.9187 44.2823 33.9187 47.0044C33.9187 55.7014 40.9943 62.777 49.6913 62.777C58.3883 62.777 65.4638 55.7014 65.4638 47.0044C65.4638 38.3075 58.3882 31.2319 49.6913 31.2319C45.3477 31.2319 41.152 33.0513 38.1799 36.2233C37.8656 36.5586 37.8829 37.0854 38.2182 37.3997C38.5535 37.7141 39.0803 37.6969 39.3946 37.3614C42.0922 34.4821 45.7491 32.8965 49.6913 32.8965C57.4705 32.8965 63.7993 39.2252 63.7993 47.0044C63.7993 54.7836 57.4704 61.1124 49.6913 61.1124C41.9121 61.1124 35.5833 54.7836 35.5833 47.0044C35.5833 44.5693 36.2143 42.1684 37.408 40.0612C37.6347 39.6612 37.4941 39.1534 37.0942 38.9268Z" fill="black"/>
<path d="M49.6913 59.0629C56.3403 59.0629 61.7497 53.6535 61.7497 47.0045C61.7497 40.3555 56.3403 34.9463 49.6913 34.9463C43.0423 34.9463 37.633 40.3555 37.633 47.0045C37.633 53.6535 43.0423 59.0629 49.6913 59.0629ZM49.6913 36.6107C55.4225 36.6107 60.0852 41.2734 60.0852 47.0044C60.0852 52.7356 55.4225 57.3983 49.6913 57.3983C43.9602 57.3983 39.2976 52.7357 39.2976 47.0045C39.2976 41.2734 43.9602 36.6107 49.6913 36.6107Z" fill="black"/>
<path d="M45.4807 51.3232H44.9758C44.5162 51.3232 44.1436 51.6957 44.1436 52.1554C44.1436 52.6152 44.5162 52.9877 44.9758 52.9877C44.9758 52.9877 46.4838 52.9872 46.7604 52.9865V53.9089C46.7604 54.3687 47.1331 54.7412 47.5927 54.7412C48.0523 54.7412 48.4249 54.3687 48.4249 53.9089V52.982C49.0117 52.9805 49.6375 52.979 50.1847 52.9777V53.9088C50.1847 54.3686 50.5573 54.7411 51.0169 54.7411C51.4766 54.7411 51.8492 54.3686 51.8492 53.9088V52.9666C53.7388 52.8443 55.2389 51.269 55.2389 49.3489C55.2389 48.0496 54.5515 46.9082 53.5216 46.2678C54.0102 45.703 54.3068 44.9676 54.3068 44.1638C54.3068 42.6508 53.2578 41.3789 51.8491 41.0352V40.0998C51.8491 39.6401 51.4765 39.2676 51.0168 39.2676C50.5572 39.2676 50.1846 39.6401 50.1846 40.0998V40.9432H48.4248V40.0998C48.4248 39.6401 48.0522 39.2676 47.5926 39.2676C47.1329 39.2676 46.7603 39.6401 46.7603 40.0998V40.9432H44.9757C44.5161 40.9432 44.1435 41.3157 44.1435 41.7755C44.1435 42.2352 44.5161 42.6077 44.9757 42.6077H45.4806V51.3232H45.4807ZM51.6128 51.3107C51.0548 51.3107 48.4931 51.3174 47.1453 51.3208V47.3931C47.7946 47.3916 51.6128 47.3875 51.6128 47.3875C52.6946 47.3875 53.5745 48.2674 53.5745 49.349C53.5745 50.4306 52.6946 51.3107 51.6128 51.3107ZM52.6424 44.1641C52.6424 45.0221 51.9443 45.7202 51.0863 45.7202C50.8632 45.7202 47.1453 45.7229 47.1453 45.7229V42.6078H51.0863C51.9444 42.6078 52.6424 43.3059 52.6424 44.1641Z" fill="black"/>
<path d="M31.8666 27.0496H31.2627C30.8031 27.0496 30.4305 27.4221 30.4305 27.8818C30.4305 28.3416 30.8031 28.7141 31.2627 28.7141H31.8666C32.3262 28.7141 32.6989 28.3416 32.6989 27.8818C32.6989 27.4221 32.3262 27.0496 31.8666 27.0496Z" fill="black"/>
<path d="M66.327 28.7141H66.9308C67.3904 28.7141 67.763 28.3416 67.763 27.8818C67.763 27.4221 67.3904 27.0496 66.9308 27.0496H66.327C65.8674 27.0496 65.4948 27.4221 65.4948 27.8818C65.4948 28.3416 65.8674 28.7141 66.327 28.7141Z" fill="black"/>
<path d="M31.8666 64.3962H31.2627C30.8031 64.3962 30.4305 64.7688 30.4305 65.2285C30.4305 65.6882 30.8031 66.0608 31.2627 66.0608H31.8666C32.3262 66.0608 32.6989 65.6882 32.6989 65.2285C32.6989 64.7688 32.3262 64.3962 31.8666 64.3962Z" fill="black"/>
<path d="M66.327 66.0608H66.9308C67.3904 66.0608 67.763 65.6882 67.763 65.2285C67.763 64.7688 67.3904 64.3962 66.9308 64.3962H66.327C65.8674 64.3962 65.4948 64.7688 65.4948 65.2285C65.4948 65.6882 65.8674 66.0608 66.327 66.0608Z" fill="black"/>
</g>
<defs>
<linearGradient id="paint0_linear_434_257" x1="-6.07812e-07" y1="45.2298" x2="169.421" y2="43.6871" gradientUnits="userSpaceOnUse">
<stop stop-color="#79E28A" stop-opacity="0.51"/>
<stop offset="1" stop-color="#79E2B1" stop-opacity="0.65"/>
</linearGradient>
<clipPath id="clip0_434_257">
<rect width="56" height="56" fill="white" transform="translate(20 20)"/>
</clipPath>
</defs>
</svg>
