<svg width="97" height="98" viewBox="0 0 97 98" fill="none" xmlns="http://www.w3.org/2000/svg">
<circle opacity="0.5" cx="48.4605" cy="48.7432" r="48.4605" fill="url(#paint0_linear_434_256)"/>
<g clip-path="url(#clip0_434_256)">
<path d="M21.0612 68.0334L26.6206 68.183L30.585 68.5556C32.4468 67.0352 33.6363 64.7224 33.6363 62.1311C33.6363 57.5528 29.9234 53.8398 25.3451 53.8398C20.7668 53.8398 17.0539 57.5528 17.0539 62.1311C17.0539 64.7224 18.2433 67.0351 20.1048 68.5555L21.0612 68.0334Z" fill="#A9E4F9"/>
<path d="M21.7915 67.4248C20.7326 66.033 20.1033 64.2967 20.1033 62.4125C20.1033 58.0963 23.4038 54.548 27.6179 54.1561C26.8951 53.9503 26.1329 53.8403 25.3441 53.8403C20.7658 53.8403 17.0529 57.5532 17.0529 62.1315C17.0529 64.7229 18.2421 67.0356 20.1038 68.5558L21.7915 67.4248Z" fill="#81D9F8"/>
<path d="M20.9622 40.6479L26.5216 40.7975L30.486 41.1701C32.3478 39.6497 33.5373 37.3369 33.5373 34.7456C33.5373 30.1673 29.8244 26.4543 25.2461 26.4543C20.6678 26.4543 16.9549 30.1673 16.9549 34.7456C16.9549 37.3369 18.1443 39.6496 20.0058 41.17L20.9622 40.6479Z" fill="#A9E4F9"/>
<path d="M21.6923 40.0393C20.6334 38.6475 20.0041 36.9112 20.0041 35.027C20.0041 30.7108 23.3046 27.1625 27.5187 26.7706C26.7959 26.5648 26.0337 26.4548 25.2449 26.4548C20.6666 26.4548 16.9537 30.1677 16.9537 34.7461C16.9537 37.3374 18.1429 39.6501 20.0046 41.1703L21.6923 40.0393Z" fill="#81D9F8"/>
<path d="M67.5617 40.771L73.1211 40.9205L77.0855 41.2932C78.9473 39.7728 80.1368 37.46 80.1368 34.8686C80.1368 30.2903 76.4239 26.5774 71.8456 26.5774C67.2673 26.5774 63.5544 30.2903 63.5544 34.8686C63.5544 37.46 64.7438 39.7727 66.6053 41.293L67.5617 40.771Z" fill="#A9E4F9"/>
<path d="M44.2171 29.2007L49.7765 29.3502L53.7409 29.7229C55.6027 28.2025 56.7922 25.8897 56.7922 23.2983C56.7922 18.72 53.0793 15.0071 48.501 15.0071C43.9227 15.0071 40.2098 18.72 40.2098 23.2983C40.2098 25.8897 41.3992 28.2023 43.2607 29.7227L44.2171 29.2007Z" fill="#A9E4F9"/>
<path d="M44.9474 28.5917C43.8885 27.2 43.2592 25.4637 43.2592 23.5795C43.2592 19.2633 46.5597 15.715 50.7738 15.3231C50.051 15.1172 49.2888 15.0073 48.5 15.0073C43.9216 15.0073 40.2087 18.7202 40.2087 23.2985C40.2087 25.8899 41.398 28.2026 43.2597 29.7228L44.9474 28.5917Z" fill="#81D9F8"/>
<path d="M53.5553 28.7555C53.2839 27.3445 52.5488 26.0652 51.4657 25.1219L49.4675 23.2983H47.4693L45.5342 25.1219C45.5342 25.1219 43.7161 27.3445 43.4446 28.7555L43.2597 29.7226C44.6882 30.8904 46.5112 31.5896 48.5 31.5896C50.4888 31.5896 52.3123 30.8908 53.7408 29.723L53.5553 28.7555Z" fill="#F8F7F8"/>
<path d="M48.4999 26.5779C50.5711 26.5779 52.2501 24.8989 52.2501 22.8278C52.2501 20.7566 50.5711 19.0776 48.4999 19.0776C46.4288 19.0776 44.7498 20.7566 44.7498 22.8278C44.7498 24.8989 46.4288 26.5779 48.4999 26.5779Z" fill="#F8F7F8"/>
<path d="M49.2768 31.552C46.9971 30.9028 45.1171 29.302 44.0946 27.2073C43.7906 27.7386 43.5344 28.2916 43.4451 28.7553L43.2597 29.7229C44.6882 30.8906 46.5117 31.5894 48.5005 31.5894C48.7624 31.5894 49.0212 31.5765 49.277 31.5528L49.2768 31.552Z" fill="#EFEDEE"/>
<path d="M68.2919 40.1621C67.233 38.7703 66.6037 37.034 66.6037 35.1498C66.6037 30.8336 69.9042 27.2853 74.1183 26.8934C73.3955 26.6876 72.6333 26.5776 71.8445 26.5776C67.2662 26.5776 63.5533 30.2905 63.5533 34.8689C63.5533 37.4602 64.7425 39.7729 66.6042 41.2931L68.2919 40.1621Z" fill="#81D9F8"/>
<path d="M76.8999 40.3261C76.6284 38.9151 75.8934 37.6358 74.8103 36.6924L72.812 34.8689H70.8138L68.8788 36.6924C68.8788 36.6924 67.0606 38.9151 66.7892 40.3261L66.6042 41.2932C68.0327 42.4609 69.8557 43.1601 71.8445 43.1601C73.8333 43.1601 75.6569 42.4613 77.0853 41.2936L76.8999 40.3261Z" fill="#F8F7F8"/>
<path d="M72.6214 43.1223C70.3416 42.4732 68.4616 40.8723 67.4391 38.7776C67.1352 39.3089 66.8789 39.8619 66.7897 40.3256L66.6042 41.2932C68.0327 42.4609 69.8562 43.1597 71.8451 43.1597C72.107 43.1597 72.3658 43.1468 72.6215 43.1231L72.6214 43.1223Z" fill="#EFEDEE"/>
<path d="M71.8445 38.1482C73.9156 38.1482 75.5946 36.4692 75.5946 34.3981C75.5946 32.3269 73.9156 30.6479 71.8445 30.6479C69.7733 30.6479 68.0944 32.3269 68.0944 34.3981C68.0944 36.4692 69.7733 38.1482 71.8445 38.1482Z" fill="#F8F7F8"/>
<path d="M30.3003 40.203C30.0288 38.792 29.2938 37.5127 28.2107 36.5694L26.2124 34.7458H24.2142L22.2791 36.5694C22.2791 36.5694 20.461 38.792 20.1895 40.203L20.0046 41.1701C21.4331 42.3379 23.2561 43.0371 25.2449 43.0371C27.2337 43.0371 29.0573 42.3383 30.4857 41.1705L30.3003 40.203Z" fill="#F8F7F8"/>
<path d="M26.0219 42.9993C23.7421 42.3501 21.8622 40.7492 20.8397 38.6545C20.5357 39.1859 20.2794 39.7389 20.1902 40.2026L20.0048 41.1701C21.4332 42.3379 23.2567 43.0367 25.2456 43.0367C25.5075 43.0367 25.7663 43.0238 26.022 43.0001L26.0219 42.9993Z" fill="#EFEDEE"/>
<path d="M25.2449 38.0254C27.316 38.0254 28.995 36.3464 28.995 34.2753C28.995 32.2041 27.316 30.5251 25.2449 30.5251C23.1737 30.5251 21.4948 32.2041 21.4948 34.2753C21.4948 36.3464 23.1737 38.0254 25.2449 38.0254Z" fill="#F8F7F8"/>
<path d="M30.3994 67.5885C30.128 66.1775 29.3929 64.8982 28.3098 63.9549L26.3116 62.1313H24.3134L22.3783 63.9549C22.3783 63.9549 20.5602 66.1775 20.2887 67.5885L20.1038 68.5556C21.5323 69.7234 23.3553 70.4226 25.3441 70.4226C27.3329 70.4226 29.1564 69.7238 30.5849 68.556L30.3994 67.5885Z" fill="#F8F7F8"/>
<path d="M26.1209 70.3848C23.8412 69.7356 21.9612 68.1347 20.9387 66.04C20.6348 66.5714 20.3785 67.1244 20.2893 67.5881L20.1038 68.5556C21.5323 69.7234 23.3558 70.4222 25.3446 70.4222C25.6065 70.4222 25.8653 70.4093 26.1211 70.3856L26.1209 70.3848Z" fill="#EFEDEE"/>
<path d="M25.3441 65.4109C27.4152 65.4109 29.0942 63.7319 29.0942 61.6608C29.0942 59.5896 27.4152 57.9106 25.3441 57.9106C23.2729 57.9106 21.5939 59.5896 21.5939 61.6608C21.5939 63.7319 23.2729 65.4109 25.3441 65.4109Z" fill="#F8F7F8"/>
<path d="M44.3157 79.6037L49.8752 79.7533L53.8395 80.1259C55.7013 78.6055 56.8909 76.2927 56.8909 73.7014C56.8909 69.1231 53.1779 65.4102 48.5996 65.4102C44.0213 65.4102 40.3084 69.1231 40.3084 73.7014C40.3084 76.2927 41.4978 78.6054 43.3594 80.1258L44.3157 79.6037Z" fill="#A9E4F9"/>
<path d="M45.046 78.9948C43.9871 77.6031 43.3578 75.8667 43.3578 73.9826C43.3578 69.6663 46.6583 66.118 50.8724 65.7262C50.1496 65.5203 49.3874 65.4104 48.5986 65.4104C44.0203 65.4104 40.3074 69.1233 40.3074 73.7016C40.3074 76.293 41.4966 78.6057 43.3583 80.1259L45.046 78.9948Z" fill="#81D9F8"/>
<path d="M53.654 79.1586C53.3825 77.7476 52.6475 76.4683 51.5644 75.5249L49.5661 73.7014H47.5679L45.6328 75.5249C45.6328 75.5249 43.8147 77.7476 43.5432 79.1586L43.3583 80.1257C44.7868 81.2935 46.6098 81.9926 48.5986 81.9926C50.5874 81.9926 52.411 81.2939 53.8394 80.1261L53.654 79.1586Z" fill="#F8F7F8"/>
<path d="M49.3755 81.9551C47.0957 81.3059 45.2157 79.7051 44.1932 77.6104C43.8893 78.1417 43.633 78.6947 43.5438 79.1584L43.3583 80.1259C44.7868 81.2937 46.6103 81.9925 48.5991 81.9925C48.8611 81.9925 49.1199 81.9796 49.3756 81.9559L49.3755 81.9551Z" fill="#EFEDEE"/>
<path d="M48.5986 76.981C50.6697 76.981 52.3487 75.302 52.3487 73.2308C52.3487 71.1597 50.6697 69.4807 48.5986 69.4807C46.5274 69.4807 44.8484 71.1597 44.8484 73.2308C44.8484 75.302 46.5274 76.981 48.5986 76.981Z" fill="#F8F7F8"/>
<path d="M67.4713 68.0334L73.0307 68.183L76.995 68.5556C78.8568 67.0352 80.0463 64.7224 80.0463 62.1311C80.0463 57.5528 76.3334 53.8398 71.7551 53.8398C67.1768 53.8398 63.4639 57.5528 63.4639 62.1311C63.4639 64.7224 64.6533 67.0351 66.5149 68.5555L67.4713 68.0334Z" fill="#A9E4F9"/>
<path d="M68.2013 67.4248C67.1424 66.033 66.5131 64.2967 66.5131 62.4125C66.5131 58.0963 69.8136 54.548 74.0278 54.1561C73.3049 53.9503 72.5427 53.8403 71.7539 53.8403C67.1756 53.8403 63.4627 57.5532 63.4627 62.1315C63.4627 64.7229 64.652 67.0356 66.5137 68.5558L68.2013 67.4248Z" fill="#81D9F8"/>
<path d="M76.8094 67.5885C76.538 66.1775 75.8029 64.8982 74.7198 63.9549L72.7216 62.1313H70.7234L68.7883 63.9549C68.7883 63.9549 66.9701 66.1775 66.6987 67.5885L66.5138 68.5556C67.9422 69.7234 69.7652 70.4226 71.7541 70.4226C73.7429 70.4226 75.5664 69.7238 76.9949 68.556L76.8094 67.5885Z" fill="#F8F7F8"/>
<path d="M72.5309 70.3848C70.2512 69.7356 68.3711 68.1347 67.3487 66.04C67.0447 66.5714 66.7885 67.1244 66.6992 67.5881L66.5138 68.5556C67.9422 69.7234 69.7658 70.4222 71.7546 70.4222C72.0165 70.4222 72.2753 70.4093 72.531 70.3856L72.5309 70.3848Z" fill="#EFEDEE"/>
<path d="M71.754 65.4109C73.8252 65.4109 75.5042 63.7319 75.5042 61.6608C75.5042 59.5896 73.8252 57.9106 71.754 57.9106C69.6829 57.9106 68.0039 59.5896 68.0039 61.6608C68.0039 63.7319 69.6829 65.4109 71.754 65.4109Z" fill="#F8F7F8"/>
<path d="M72.7623 52.8881V44.1118C77.4172 43.6076 81.0531 39.6553 81.0531 34.8687C81.0531 29.7415 76.8817 25.5701 71.7545 25.5701C68.4744 25.5701 65.5878 27.2787 63.932 29.851L57.225 26.514C57.5956 25.5115 57.7986 24.4284 57.7986 23.2987C57.7986 22.3024 57.6394 21.3172 57.3255 20.3704C57.1504 19.8422 56.5805 19.5561 56.0516 19.7312C55.5233 19.9064 55.2369 20.4767 55.4123 21.0051C55.6584 21.7467 55.7831 22.5183 55.7831 23.2987C55.7831 24.9408 55.2363 26.4573 54.3159 27.6769C53.9907 26.676 53.4533 25.7503 52.7464 24.9705C53.0729 24.326 53.2582 23.5983 53.2582 22.8278C53.2582 20.2043 51.1237 18.0698 48.5002 18.0698C45.8767 18.0698 43.7423 20.2043 43.7423 22.8278C43.7423 23.599 43.9278 24.3272 44.2549 24.9721C43.5479 25.7516 43.0099 26.6763 42.6845 27.6767C41.7642 26.4573 41.2174 24.9406 41.2174 23.2985C41.2174 19.2827 44.4844 16.0156 48.5004 16.0156C50.282 16.0156 51.9973 16.667 53.3306 17.85C53.7469 18.2195 54.384 18.1814 54.7533 17.765C55.1229 17.3487 55.0847 16.7118 54.6684 16.3424C52.9657 14.8318 50.7751 14 48.5 14C43.3727 14 39.2013 18.1714 39.2013 23.2987C39.2013 24.4284 39.4043 25.5115 39.775 26.514L33.0679 29.851C31.4121 27.2787 28.5255 25.5701 25.2454 25.5701C20.1182 25.5701 15.9468 29.7415 15.9468 34.8687C15.9468 39.6555 19.5827 43.6077 24.2376 44.1118V52.8881C19.5827 53.3923 15.9468 57.3445 15.9468 62.1313C15.9468 67.2585 20.1182 71.4299 25.2454 71.4299C28.622 71.4299 31.5835 69.6205 33.2125 66.9207L39.8299 70.3471C39.4256 71.3884 39.2014 72.5189 39.2014 73.7015C39.2014 78.8287 43.3728 83.0001 48.5001 83.0001C53.6273 83.0001 57.7988 78.8287 57.7988 73.7015C57.7988 72.5189 57.5745 71.3885 57.1703 70.3471L63.7877 66.9207C65.4167 69.6205 68.3781 71.4299 71.7547 71.4299C76.882 71.4299 81.0534 67.2585 81.0534 62.1313C81.0531 57.3445 77.4172 53.3923 72.7623 52.8881ZM71.7546 37.1403C70.2424 37.1403 69.0122 35.91 69.0122 34.3979C69.0122 32.8858 70.2424 31.6556 71.7546 31.6556C73.2666 31.6556 74.4969 32.8858 74.4969 34.3979C74.4969 35.91 73.2666 37.1403 71.7546 37.1403ZM68.8028 38.1256C69.6146 38.7698 70.6401 39.156 71.7546 39.156C72.8692 39.156 73.8945 38.7698 74.7063 38.1256C75.2646 38.8153 75.6516 39.6387 75.8197 40.515L75.8862 40.8617C74.7114 41.6741 73.288 42.1516 71.7546 42.1516C70.2212 42.1516 68.7979 41.6741 67.623 40.8617L67.6895 40.515C67.8575 39.6387 68.2445 38.8153 68.8028 38.1256ZM71.7546 27.5858C75.7704 27.5858 79.0376 30.8528 79.0376 34.8687C79.0376 36.5121 78.49 38.0295 77.5684 39.2494C77.2435 38.2477 76.708 37.3206 76.0009 36.5403C76.3274 35.8958 76.5126 35.1683 76.5126 34.3977C76.5126 31.7742 74.3781 29.6398 71.7546 29.6398C69.131 29.6398 66.9965 31.7742 66.9965 34.3977C66.9965 35.1683 67.1818 35.8959 67.5084 36.5404C66.8014 37.3202 66.2641 38.2458 65.9388 39.2467C65.0184 38.0272 64.4716 36.5106 64.4716 34.8685C64.4715 30.8529 67.7387 27.5858 71.7546 27.5858ZM48.5 27.5858C49.6145 27.5858 50.6398 27.1996 51.4516 26.5553C52.01 27.2451 52.397 28.0685 52.5651 28.9449L52.6316 29.2916C51.4567 30.104 50.0334 30.5815 48.5 30.5815C46.9666 30.5815 45.5432 30.104 44.3683 29.2916L44.4348 28.9448C44.6028 28.0685 44.99 27.2451 45.5483 26.5553C46.3601 27.1996 47.3855 27.5858 48.5 27.5858ZM48.5 20.0855C50.012 20.0855 51.2422 21.3158 51.2422 22.8278C51.2422 24.3398 50.0121 25.5701 48.5 25.5701C46.9878 25.5701 45.7577 24.3398 45.7577 22.8278C45.7577 21.3158 46.9879 20.0855 48.5 20.0855ZM17.9625 34.8687C17.9625 30.8529 21.2295 27.5858 25.2454 27.5858C29.2614 27.5858 32.5284 30.8528 32.5284 34.8687C32.5284 36.5109 31.9816 38.0273 31.0613 39.247C30.7359 38.2461 30.1987 37.3205 29.4917 36.5407C29.8182 35.8962 30.0036 35.1685 30.0036 34.398C30.0036 31.7745 27.8691 29.64 25.2454 29.64C22.6219 29.64 20.4875 31.7745 20.4875 34.398C20.4875 35.1685 20.6728 35.8962 20.9993 36.5407C20.2923 37.3205 19.7551 38.2461 19.4298 39.2471C18.5093 38.0273 17.9625 36.5109 17.9625 34.8687ZM25.2454 42.1517C23.712 42.1517 22.2887 41.6743 21.1138 40.8618L21.1803 40.5151C21.3484 39.6387 21.7354 38.8153 22.2938 38.1256C23.1056 38.7698 24.131 39.156 25.2454 39.156C26.3597 39.156 27.385 38.7699 28.1968 38.126C28.7553 38.8156 29.1426 39.6387 29.3107 40.5151L29.3772 40.8618C28.2022 41.6741 26.7788 42.1517 25.2454 42.1517ZM25.2454 37.1403C23.7334 37.1403 22.5032 35.91 22.5032 34.3979C22.5032 32.8858 23.7334 31.6556 25.2454 31.6556C26.7576 31.6556 27.9879 32.8858 27.9879 34.3979C27.9879 35.91 26.7576 37.1403 25.2454 37.1403ZM21.1138 68.1242L21.1803 67.7775C21.3484 66.9011 21.7354 66.0777 22.2938 65.3879C23.1056 66.0322 24.131 66.4184 25.2454 66.4184C26.36 66.4184 27.3853 66.0322 28.1972 65.3879C28.7556 66.0777 29.1426 66.9011 29.3107 67.7773L29.3772 68.1242C28.2023 68.9366 26.779 69.4141 25.2456 69.4141C23.7122 69.4142 22.2887 68.9366 21.1138 68.1242ZM25.2454 64.4027C23.7334 64.4027 22.5032 63.1724 22.5032 61.6604C22.5032 60.1484 23.7334 58.9181 25.2454 58.9181C26.7576 58.9181 27.9879 60.1484 27.9879 61.6604C27.9879 63.1724 26.7576 64.4027 25.2454 64.4027ZM44.3685 79.6943L44.435 79.3476C44.603 78.4713 44.99 77.6478 45.5484 76.958C46.3602 77.6022 47.3857 77.9884 48.5001 77.9884C49.6141 77.9884 50.6391 77.6025 51.4508 76.9588C52.0094 77.6485 52.3972 78.4711 52.5652 79.3476L52.6317 79.6943C51.4568 80.5067 50.0335 80.9842 48.5001 80.9842C46.9667 80.9842 45.5432 80.5067 44.3685 79.6943ZM48.5 75.9728C46.9879 75.9728 45.7577 74.7425 45.7577 73.2305C45.7577 71.7184 46.9879 70.4882 48.5 70.4882C50.012 70.4882 51.2422 71.7184 51.2422 73.2305C51.2422 74.7425 50.0121 75.9728 48.5 75.9728ZM54.3155 78.0798C53.99 77.0792 53.4525 76.1542 52.7454 75.3745C53.0725 74.7296 53.2579 74.0015 53.2579 73.2303C53.2579 70.6068 51.1234 68.4724 48.5 68.4724C45.8765 68.4724 43.742 70.6068 43.742 73.2303C43.742 74.0009 43.9273 74.7285 44.2538 75.373C43.5469 76.1528 43.0095 77.0786 42.6843 78.0793C41.7639 76.8598 41.2171 75.3432 41.2171 73.7012C41.2171 69.6854 44.4842 66.4182 48.5001 66.4182C52.516 66.4182 55.7831 69.6853 55.7831 73.7012C55.7829 75.3436 55.236 76.8603 54.3155 78.0798ZM67.6228 68.1242L67.6894 67.7775C67.8575 66.9011 68.2446 66.0779 68.8031 65.3882C69.6149 66.0323 70.6402 66.4184 71.7545 66.4184C72.8688 66.4184 73.8941 66.0323 74.7057 65.3883C75.2641 66.0781 75.6515 66.9011 75.8196 67.7775L75.8861 68.1243C74.7112 68.9368 73.2879 69.4142 71.7545 69.4142C70.2211 69.4142 68.7977 68.9366 67.6228 68.1242ZM71.7546 64.4027C70.2424 64.4027 69.0122 63.1724 69.0122 61.6604C69.0122 60.1484 70.2424 58.9181 71.7546 58.9181C73.2666 58.9181 74.4969 60.1484 74.4969 61.6604C74.4969 63.1724 73.2666 64.4027 71.7546 64.4027ZM77.5703 66.5093C77.245 65.5085 76.7077 64.5827 76.0007 63.8029C76.3273 63.1585 76.5126 62.4308 76.5126 61.6603C76.5126 59.0368 74.3781 56.9023 71.7546 56.9023C69.131 56.9023 66.9965 59.0368 66.9965 61.6603C66.9965 62.4316 67.1821 63.1598 67.5093 63.8048C66.8023 64.5844 66.2644 65.509 65.9389 66.5095C65.0184 65.2898 64.4716 63.7734 64.4716 62.1311C64.4716 61.0865 64.6901 60.0754 65.1211 59.1261C65.3512 58.6192 65.1267 58.0219 64.62 57.7917C64.1129 57.5617 63.5157 57.7861 63.2856 58.2928C62.7352 59.5056 62.4561 60.797 62.4561 62.131C62.4561 63.1649 62.6282 64.1589 62.9412 65.0887L56.242 68.5576C54.5738 66.055 51.7268 64.4024 48.5002 64.4024C45.2736 64.4024 42.4267 66.055 40.7586 68.5576L34.0594 65.0887C34.3722 64.1588 34.5445 63.1649 34.5445 62.131C34.5445 60.736 34.242 59.393 33.6455 58.1395C33.4064 57.6369 32.8052 57.4234 32.3024 57.6626C31.7998 57.9018 31.5863 58.5031 31.8255 59.0057C32.2922 59.9864 32.5288 61.0379 32.5288 62.1309C32.5288 63.773 31.982 65.2894 31.0617 66.5091C30.7363 65.5082 30.1991 64.5825 29.4921 63.8027C29.8186 63.1582 30.004 62.4305 30.004 61.66C30.004 59.0365 27.8695 56.902 25.2458 56.902C22.6224 56.902 20.4879 59.0365 20.4879 61.66C20.4879 62.4305 20.6732 63.1582 20.9997 63.8027C20.2927 64.5825 19.7555 65.5081 19.4302 66.5091C18.5098 65.2896 17.963 63.773 17.963 62.1309C17.963 58.1151 21.2302 54.8479 25.246 54.8479C26.7256 54.8479 28.1506 55.29 29.3667 56.1265C29.8254 56.4419 30.4529 56.3258 30.7683 55.8672C31.0837 55.4085 30.9676 54.7811 30.509 54.4656C29.2337 53.5885 27.7789 53.0515 26.2538 52.8869V44.1118C30.9087 43.6076 34.5446 39.6553 34.5446 34.8687C34.5446 33.739 34.3416 32.6559 33.971 31.6534L40.678 28.3164C42.3338 30.8888 45.2204 32.5973 48.5004 32.5973C51.7803 32.5973 54.667 30.8887 56.3227 28.3164L63.0297 31.6534C62.6591 32.6559 62.4561 33.739 62.4561 34.8687C62.4561 39.6553 66.092 43.6076 70.7469 44.1118V52.8877C69.1608 53.0585 67.6547 53.6312 66.3431 54.5716C65.8907 54.896 65.7869 55.5256 66.1113 55.9779C66.4357 56.4303 67.0654 56.5341 67.5176 56.2097C68.7598 55.319 70.225 54.8482 71.7546 54.8482C75.7704 54.8482 79.0376 58.1153 79.0376 62.1311C79.0374 63.7734 78.4907 65.2898 77.5703 66.5093Z" fill="black"/>
</g>
<defs>
<linearGradient id="paint0_linear_434_256" x1="-5.19627e-07" y1="45.5125" x2="94.5981" y2="45.9347" gradientUnits="userSpaceOnUse">
<stop stop-color="#47C2FF"/>
<stop offset="1" stop-color="#63CBFE" stop-opacity="0.65"/>
</linearGradient>
<clipPath id="clip0_434_256">
<rect width="69" height="69" fill="white" transform="translate(14 14)"/>
</clipPath>
</defs>
</svg>
