<svg width="97" height="97" viewBox="0 0 97 97" fill="none" xmlns="http://www.w3.org/2000/svg">
<circle opacity="0.5" cx="48.4605" cy="48.4605" r="48.4605" fill="url(#paint0_linear_434_261)"/>
<g clip-path="url(#clip0_434_261)">
<path d="M35.8337 71.7008H-22.549C-25.3639 71.7008 -27.645 69.4187 -27.645 66.6049V8.22212C-27.645 5.40725 -25.3629 3.12622 -22.549 3.12622H35.8337C38.6486 3.12622 40.9296 5.40827 40.9296 8.22212V66.6049C40.9296 69.4197 38.6486 71.7008 35.8337 71.7008Z" fill="#EA9A98"/>
<path d="M2.88356 58.5411C-5.31246 58.5411 -11.9559 51.8977 -11.9559 43.7017V3.125H-22.549C-25.3639 3.125 -27.645 5.40705 -27.645 8.22089V66.6036C-27.645 69.4185 -25.3639 71.6995 -22.549 71.6995H35.8347C38.6496 71.6995 40.9306 69.4175 40.9306 66.6036V58.5411H2.88356Z" fill="#E5827F"/>
<path d="M142.26 84.0522H120.71V52.237C120.71 48.0162 117.29 44.5962 113.069 44.5962C108.848 44.5962 105.428 48.0162 105.428 52.237V84.0522H83.877C76.8536 84.0522 71.1403 89.7655 71.1403 96.7899V111.439C71.1403 115.66 74.5603 119.08 78.7811 119.08C83.0018 119.08 86.4219 115.66 86.4219 111.439V99.3338H139.715V156.106H86.4209V144.002C86.4209 139.781 83.0008 136.361 78.7801 136.361C74.5593 136.361 71.1393 139.781 71.1393 144.002V158.651C71.1393 165.674 76.8525 171.387 83.8759 171.387H105.427V220.317C105.427 224.538 108.847 227.958 113.068 227.958C117.289 227.958 120.709 224.538 120.709 220.317V171.387H142.259C149.282 171.387 154.995 165.674 154.995 158.651V96.7899C154.996 89.7655 149.283 84.0522 142.26 84.0522Z" fill="black"/>
<path d="M149.069 -47.9773L113.934 -17.3765L103.517 -29.8483C102.189 -31.4366 100.276 -32.4187 98.2121 -32.5705C96.1521 -32.7263 94.1115 -32.0305 92.5671 -30.6531L48.5704 8.57468V8.22218C48.5704 1.19876 42.8571 -4.5145 35.8327 -4.5145H14.2826V-16.1081C14.2826 -20.3289 10.8626 -23.7489 6.64183 -23.7489C2.42105 -23.7489 -0.998962 -20.3289 -0.998962 -16.1081V-4.5145H-22.549C-29.5724 -4.5145 -35.2857 1.19876 -35.2857 8.22218V66.6049C-35.2857 71.3198 -32.7052 75.4346 -28.8878 77.6372L-57.8566 103.465V-32.5847C-57.8566 -39.6081 -63.5699 -45.3214 -70.5933 -45.3214H-92.1434V-89.9222C-92.1434 -94.143 -95.5634 -97.563 -99.7842 -97.563C-104.005 -97.563 -107.425 -94.143 -107.425 -89.9222V-45.3214H-128.975C-135.999 -45.3214 -141.713 -39.6081 -141.713 -32.5847V5.47252C-141.713 9.69329 -138.293 13.1133 -134.072 13.1133C-129.851 13.1133 -126.431 9.69329 -126.431 5.47252V-30.0398H-73.1372V186.673H-126.431V38.0355C-126.431 33.8148 -129.851 30.3947 -134.072 30.3947C-138.293 30.3947 -141.713 33.8148 -141.713 38.0355V178.232L-200.444 230.597C-203.594 233.404 -203.87 238.234 -201.061 241.384C-199.552 243.078 -197.459 243.94 -195.355 243.94C-193.547 243.94 -191.729 243.302 -190.273 242.003L-139.341 196.591C-137.029 199.832 -133.249 201.955 -128.974 201.955H-107.424V253.857C-107.424 258.078 -104.004 261.498 -99.7831 261.498C-95.5624 261.498 -92.1423 258.078 -92.1423 253.857V201.955H-70.5923C-63.5689 201.955 -57.8556 196.242 -57.8556 189.218V123.937L-7.83798 79.3416H-0.997955V225.489C-0.997955 229.71 2.42207 233.13 6.64284 233.13C10.8636 233.13 14.2836 229.71 14.2836 225.489V79.3416H35.8337C42.8581 79.3416 48.5714 73.6283 48.5714 66.6039V29.0469L96.8469 -13.9962L107.205 -1.59368C108.522 -0.0166245 110.417 0.96344 112.465 1.12543C114.511 1.28639 116.54 0.619095 118.088 -0.729759L159.107 -36.454C162.29 -39.2251 162.622 -44.051 159.85 -47.2336C157.078 -50.4173 152.251 -50.7494 149.069 -47.9773ZM33.2898 64.06H-20.0042V10.7661H33.2898V64.06Z" fill="black"/>
<path d="M48.8337 75.7008H-9.54905C-12.3639 75.7008 -14.645 73.4187 -14.645 70.6049V12.2221C-14.645 9.40725 -12.3629 7.12622 -9.54905 7.12622H48.8337C51.6486 7.12622 53.9296 9.40827 53.9296 12.2221V70.6049C53.9296 73.4197 51.6486 75.7008 48.8337 75.7008Z" fill="#EA9A98"/>
<path d="M15.8836 62.5411C7.68754 62.5411 1.04413 55.8977 1.04413 47.7017V7.125H-9.54905C-12.3639 7.125 -14.645 9.40705 -14.645 12.2209V70.6036C-14.645 73.4185 -12.3639 75.6995 -9.54905 75.6995H48.8347C51.6496 75.6995 53.9306 73.4175 53.9306 70.6036V62.5411H15.8836Z" fill="#E5827F"/>
<path d="M162.069 -43.9773L126.934 -13.3765L116.517 -25.8483C115.189 -27.4366 113.276 -28.4187 111.212 -28.5705C109.152 -28.7263 107.112 -28.0305 105.567 -26.6531L61.5704 12.5747V12.2222C61.5704 5.19876 55.8571 -0.514503 48.8327 -0.514503H27.2826V-12.1081C27.2826 -16.3289 23.8626 -19.7489 19.6418 -19.7489C15.4211 -19.7489 12.001 -16.3289 12.001 -12.1081V-0.514503H-9.54904C-16.5724 -0.514503 -22.2857 5.19876 -22.2857 12.2222V70.6049C-22.2857 75.3198 -19.7052 79.4346 -15.8878 81.6372L-44.8566 107.465V-28.5847C-44.8566 -35.6081 -50.5699 -41.3214 -57.5933 -41.3214H-79.1434V-85.9222C-79.1434 -90.143 -82.5634 -93.563 -86.7842 -93.563C-91.0049 -93.563 -94.4249 -90.143 -94.4249 -85.9222V-41.3214H-115.975C-122.999 -41.3214 -128.713 -35.6081 -128.713 -28.5847V9.47252C-128.713 13.6933 -125.293 17.1133 -121.072 17.1133C-116.851 17.1133 -113.431 13.6933 -113.431 9.47252V-26.0398H-60.1372V190.673H-113.431V42.0355C-113.431 37.8148 -116.851 34.3947 -121.072 34.3947C-125.293 34.3947 -128.713 37.8148 -128.713 42.0355V182.232L-187.444 234.597C-190.594 237.404 -190.87 242.234 -188.061 245.384C-186.552 247.078 -184.459 247.94 -182.355 247.94C-180.547 247.94 -178.729 247.302 -177.273 246.003L-126.341 200.591C-124.029 203.832 -120.249 205.955 -115.974 205.955H-94.4239V257.857C-94.4239 262.078 -91.0039 265.498 -86.7831 265.498C-82.5624 265.498 -79.1423 262.078 -79.1423 257.857V205.955H-57.5923C-50.5689 205.955 -44.8556 200.242 -44.8556 193.218V127.937L5.16202 83.3416H12.002V229.489C12.002 233.71 15.4221 237.13 19.6428 237.13C23.8636 237.13 27.2836 233.71 27.2836 229.489V83.3416H48.8337C55.8581 83.3416 61.5714 77.6283 61.5714 70.6039V33.0469L109.847 -9.99621L120.205 2.40632C121.522 3.98338 123.417 4.96344 125.465 5.12543C127.511 5.28639 129.54 4.61909 131.088 3.27024L172.107 -32.454C175.29 -35.2251 175.622 -40.051 172.85 -43.2336C170.078 -46.4173 165.251 -46.7494 162.069 -43.9773ZM46.2898 68.06H-7.00417V14.7661H46.2898V68.06Z" fill="black"/>
<path d="M123.26 86.0522H101.71V54.237C101.71 50.0162 98.2896 46.5962 94.0688 46.5962C89.8481 46.5962 86.4281 50.0162 86.4281 54.237V86.0522H64.877C57.8536 86.0522 52.1403 91.7655 52.1403 98.7899V113.439C52.1403 117.66 55.5603 121.08 59.7811 121.08C64.0018 121.08 67.4219 117.66 67.4219 113.439V101.334H120.715V158.106H67.4209V146.002C67.4209 141.781 64.0008 138.361 59.7801 138.361C55.5593 138.361 52.1393 141.781 52.1393 146.002V160.651C52.1393 167.674 57.8525 173.387 64.8759 173.387H86.427V222.317C86.427 226.538 89.8471 229.958 94.0678 229.958C98.2886 229.958 101.709 226.538 101.709 222.317V173.387H123.259C130.282 173.387 135.995 167.674 135.995 160.651V98.7899C135.996 91.7655 130.283 86.0522 123.26 86.0522Z" fill="black"/>
<path d="M130.069 -45.9773L94.9338 -15.3765L84.5168 -27.8483C83.1893 -29.4366 81.2761 -30.4187 79.2121 -30.5705C77.1521 -30.7263 75.1115 -30.0305 73.5671 -28.6531L29.5704 10.5747V10.2222C29.5704 3.19876 23.8571 -2.5145 16.8327 -2.5145H-4.71739V-14.1081C-4.71739 -18.3289 -8.13741 -21.7489 -12.3582 -21.7489C-16.5789 -21.7489 -19.999 -18.3289 -19.999 -14.1081V-2.5145H-41.549C-48.5724 -2.5145 -54.2857 3.19876 -54.2857 10.2222V68.6049C-54.2857 73.3198 -51.7052 77.4346 -47.8878 79.6372L-76.8566 105.465V-30.5847C-76.8566 -37.6081 -82.5699 -43.3214 -89.5933 -43.3214H-111.143V-87.9222C-111.143 -92.143 -114.563 -95.563 -118.784 -95.563C-123.005 -95.563 -126.425 -92.143 -126.425 -87.9222V-43.3214H-147.975C-154.999 -43.3214 -160.713 -37.6081 -160.713 -30.5847V7.47252C-160.713 11.6933 -157.293 15.1133 -153.072 15.1133C-148.851 15.1133 -145.431 11.6933 -145.431 7.47252V-28.0398H-92.1372V188.673H-145.431V40.0355C-145.431 35.8148 -148.851 32.3947 -153.072 32.3947C-157.293 32.3947 -160.713 35.8148 -160.713 40.0355V180.232L-219.444 232.597C-222.594 235.404 -222.87 240.234 -220.061 243.384C-218.552 245.078 -216.459 245.94 -214.355 245.94C-212.547 245.94 -210.729 245.302 -209.273 244.003L-158.341 198.591C-156.029 201.832 -152.249 203.955 -147.974 203.955H-126.424V255.857C-126.424 260.078 -123.004 263.498 -118.783 263.498C-114.562 263.498 -111.142 260.078 -111.142 255.857V203.955H-89.5923C-82.5689 203.955 -76.8556 198.242 -76.8556 191.218V125.937L-26.838 81.3416H-19.998V227.489C-19.998 231.71 -16.5779 235.13 -12.3572 235.13C-8.1364 235.13 -4.71637 231.71 -4.71637 227.489V81.3416H16.8337C23.8581 81.3416 29.5714 75.6283 29.5714 68.6039V31.0469L77.8469 -11.9962L88.2048 0.406319C89.522 1.98338 91.417 2.96344 93.4647 3.12543C95.5114 3.28639 97.5398 2.61909 99.0883 1.27024L140.107 -34.454C143.29 -37.2251 143.622 -42.051 140.85 -45.2336C138.078 -48.4173 133.251 -48.7494 130.069 -45.9773ZM14.2898 66.06H-39.0042V12.7661H14.2898V66.06Z" fill="black"/>
</g>
<g clip-path="url(#clip1_434_261)">
<path d="M31.3268 64.5625H23.6868C23.3185 64.5625 23.02 64.2639 23.02 63.8957V34.8707C23.02 34.5024 23.3186 34.2039 23.6868 34.2039H31.3268C31.6951 34.2039 31.9936 34.5025 31.9936 34.8707V63.8957C31.9936 64.2641 31.695 64.5625 31.3268 64.5625Z" fill="#D8EFA7"/>
<path d="M27.9935 61.8637C26.7696 61.8637 25.7776 60.8716 25.7776 59.6479V34.2039H23.6868C23.3185 34.2039 23.02 34.5025 23.02 34.8707V63.8957C23.02 64.2641 23.3185 64.5625 23.6868 64.5625H31.3268C31.6951 64.5625 31.9936 64.2639 31.9936 63.8957V61.8637H27.9935Z" fill="#C5E97D"/>
<path d="M45.2536 48.5173H37.6137C37.2453 48.5173 36.9468 48.2187 36.9468 47.8505V40.2105C36.9468 39.8422 37.2455 39.5437 37.6137 39.5437H45.2536C45.622 39.5437 45.9205 39.8423 45.9205 40.2105V47.8505C45.9205 48.2188 45.622 48.5173 45.2536 48.5173Z" fill="#EA9A98"/>
<path d="M40.9418 46.7954C39.8693 46.7954 38.9999 45.9261 38.9999 44.8535V39.5437H37.6137C37.2453 39.5437 36.9468 39.8423 36.9468 40.2105V47.8505C36.9468 48.2188 37.2453 48.5173 37.6137 48.5173H45.2538C45.6221 48.5173 45.9206 48.2187 45.9206 47.8505V46.7954H40.9418Z" fill="#E5827F"/>
<path d="M59.1805 60.5623H51.5405C51.1722 60.5623 50.8737 60.2637 50.8737 59.8955V51.8004C50.8737 51.432 51.1723 51.1335 51.5405 51.1335H59.1805C59.5488 51.1335 59.8473 51.4322 59.8473 51.8004V59.8955C59.8473 60.2637 59.5488 60.5623 59.1805 60.5623Z" fill="#EA9A98"/>
<path d="M54.1807 58.8065C53.4741 58.8065 52.9014 58.2338 52.9014 57.5272V51.1335H51.5406C51.1723 51.1335 50.8738 51.4322 50.8738 51.8004V59.8955C50.8738 60.2638 51.1724 60.5623 51.5406 60.5623H59.1806C59.5489 60.5623 59.8474 60.2637 59.8474 59.8955V58.8065H54.1807Z" fill="#E5827F"/>
<path d="M73.1073 57.6601H65.4674C65.099 57.6601 64.8005 57.3614 64.8005 56.9932V29.2259C64.8005 28.8576 65.0991 28.5591 65.4674 28.5591H73.1073C73.4757 28.5591 73.7742 28.8577 73.7742 29.2259V56.9932C73.7743 57.3616 73.4757 57.6601 73.1073 57.6601Z" fill="#D8EFA7"/>
<path d="M69.2514 55.2213C68.4402 55.2213 67.7825 54.5637 67.7825 53.7525V28.5588H65.4675C65.0991 28.5588 64.8006 28.8575 64.8006 29.2257V56.993C64.8006 57.3613 65.0993 57.6598 65.4675 57.6598H73.1074C73.4758 57.6598 73.7743 57.3612 73.7743 56.993V55.2212H69.2514V55.2213Z" fill="#C5E97D"/>
<path d="M59.1805 50.1336H56.3604V45.9703C56.3604 45.418 55.9129 44.9705 55.3606 44.9705C54.8082 44.9705 54.3607 45.418 54.3607 45.9703V50.1336H51.5405C50.6215 50.1336 49.8738 50.8813 49.8738 51.8005V53.7174C49.8738 54.2698 50.3214 54.7173 50.8737 54.7173C51.426 54.7173 51.8736 54.2698 51.8736 53.7174V52.1334H58.8474V59.5625H51.8734V57.9786C51.8734 57.4263 51.4259 56.9788 50.8736 56.9788C50.3212 56.9788 49.8737 57.4263 49.8737 57.9786V59.8956C49.8737 60.8146 50.6213 61.5623 51.5404 61.5623H54.3606V67.9652C54.3606 68.5175 54.8081 68.965 55.3604 68.965C55.9127 68.965 56.3603 68.5175 56.3603 67.9652V61.5623H59.1803C60.0994 61.5623 60.847 60.8146 60.847 59.8956V51.8005C60.8472 50.8813 60.0995 50.1336 59.1805 50.1336Z" fill="black"/>
<path d="M73.1073 27.559H70.2873V22.1871C70.2873 21.6348 69.8397 21.1873 69.2874 21.1873C68.7351 21.1873 68.2875 21.6348 68.2875 22.1871V27.5591H65.4675C64.5483 27.5591 63.8007 28.3067 63.8007 29.2259V56.9931C63.8007 57.9122 64.5483 58.6598 65.4675 58.6598H68.2745C68.2543 60.2019 68.2165 63.0828 68.2009 64.2505C68.1934 64.8027 68.6351 65.2563 69.1873 65.2636C69.1918 65.2637 69.1962 65.2637 69.2009 65.2637C69.7469 65.2637 70.193 64.8249 70.2004 64.2772C70.216 63.103 70.2542 60.1955 70.2742 58.6599H73.1073C74.0265 58.6599 74.7742 57.9123 74.7742 56.9932V53.2642C74.7742 52.7119 74.3266 52.2644 73.7743 52.2644C73.222 52.2644 72.7744 52.7119 72.7744 53.2642V56.6602H65.8004V29.5587H72.7744V49.0029C72.7744 49.5553 73.222 50.0028 73.7743 50.0028C74.3266 50.0028 74.7742 49.5553 74.7742 49.0029V29.2258C74.7742 28.3067 74.0265 27.559 73.1073 27.559Z" fill="black"/>
<path d="M60.0716 32.8564L55.4738 36.8608L54.1106 35.2288C53.9369 35.0209 53.6865 34.8924 53.4164 34.8726C53.1469 34.8522 52.8798 34.9432 52.6777 35.1235L46.9203 40.2568V40.2107C46.9203 39.2916 46.1727 38.5439 45.2535 38.5439H42.4335V37.0268C42.4335 36.4745 41.9859 36.0269 41.4336 36.0269C40.8813 36.0269 40.4337 36.4745 40.4337 37.0268V38.5439H37.6137C36.6946 38.5439 35.947 39.2916 35.947 40.2107V47.8506C35.947 48.4676 36.2847 49.006 36.7842 49.2943L32.9934 52.6741V34.8707C32.9934 33.9516 32.2457 33.204 31.3267 33.204H28.5066V27.3675C28.5066 26.8152 28.0591 26.3677 27.5068 26.3677C26.9544 26.3677 26.5069 26.8152 26.5069 27.3675V33.204H23.6869C22.7676 33.204 22.02 33.9516 22.02 34.8707V39.8508C22.02 40.4032 22.4675 40.8507 23.0199 40.8507C23.5722 40.8507 24.0197 40.4032 24.0197 39.8508V35.2037H30.9938V63.5627H24.0197V44.112C24.0197 43.5597 23.5722 43.1121 23.0199 43.1121C22.4675 43.1121 22.02 43.5597 22.02 44.112V62.458L14.3345 69.3104C13.9223 69.6779 13.8861 70.3099 14.2537 70.7221C14.4511 70.9437 14.7251 71.0566 15.0004 71.0566C15.237 71.0566 15.4749 70.973 15.6654 70.8031L22.3304 64.8605C22.6329 65.2846 23.1276 65.5624 23.687 65.5624H26.507V72.3543C26.507 72.9066 26.9546 73.3542 27.5069 73.3542C28.0592 73.3542 28.5068 72.9066 28.5068 72.3543V65.5624H31.3268C32.2459 65.5624 32.9935 64.8148 32.9935 63.8957V55.3531L39.5388 49.5173H40.4339V68.6421C40.4339 69.1945 40.8814 69.642 41.4337 69.642C41.9861 69.642 42.4336 69.1945 42.4336 68.6421V49.5173H45.2536C46.1728 49.5173 46.9205 48.7697 46.9205 47.8505V42.9358L53.2378 37.3032L54.5932 38.9262C54.7656 39.1325 55.0135 39.2608 55.2815 39.282C55.5493 39.303 55.8148 39.2157 56.0174 39.0392L61.3851 34.3644C61.8016 34.0017 61.8451 33.3702 61.4823 32.9537C61.1195 32.5371 60.4879 32.4937 60.0716 32.8564ZM44.9207 47.5176H37.9467V40.5436H44.9207V47.5176Z" fill="black"/>
<path d="M80.0001 15.6458H76.1946C75.6423 15.6458 75.1948 16.0933 75.1948 16.6456C75.1948 17.1979 75.6423 17.6455 76.1946 17.6455H77.5362L73.7331 20.9579C73.3167 21.3205 73.2732 21.952 73.6359 22.3685C73.8335 22.5955 74.111 22.7116 74.3902 22.7116C74.6231 22.7116 74.8571 22.6307 75.0465 22.4657L79.0003 19.0221V20.451C79.0003 21.0033 79.4478 21.4509 80.0001 21.4509C80.5525 21.4509 81 21.0033 81 20.451V16.6456C81 16.0934 80.5525 15.6458 80.0001 15.6458Z" fill="black"/>
</g>
<defs>
<linearGradient id="paint0_linear_434_261" x1="-5.19627e-07" y1="45.2298" x2="94.5981" y2="45.652" gradientUnits="userSpaceOnUse">
<stop stop-color="#AA80FF"/>
<stop offset="1" stop-color="#A071FF" stop-opacity="0.65"/>
</linearGradient>
<clipPath id="clip0_434_261">
<rect width="48" height="48" fill="white" transform="translate(24 24)"/>
</clipPath>
<clipPath id="clip1_434_261">
<rect width="67" height="67" fill="white" transform="translate(14 11)"/>
</clipPath>
</defs>
</svg>
