<svg width="97" height="97" viewBox="0 0 97 97" fill="none" xmlns="http://www.w3.org/2000/svg">
<circle opacity="0.5" cx="48.4605" cy="48.4605" r="48.4605" fill="#D8EFA7"/>
<g clip-path="url(#clip0_434_259)">
<path d="M77.2044 65.0541C81.4481 65.0541 84.8883 61.6139 84.8883 57.3702V38.9261C84.8883 34.6824 81.4481 31.2422 77.2044 31.2422H34.1391V65.0541H77.2044Z" fill="#D8EFA7"/>
<path d="M34.1391 65.0541H55.0322C58.9107 60.4375 61.2506 54.4872 61.2506 47.9999C61.2506 41.6508 59.0095 35.8159 55.2781 31.2422H34.1391V65.0541Z" fill="#C5E97D"/>
<path d="M77.2044 60.3108C78.8259 60.3108 80.1451 58.9916 80.1451 57.3701V38.926C80.1451 37.3046 78.826 35.9854 77.2044 35.9854H34.1391V60.3108H77.2044Z" fill="#F8F7F8"/>
<path d="M61.2506 47.9998C61.2506 43.678 60.2114 39.595 58.3713 35.9854H34.1391V60.3108H58.2182C60.1538 56.629 61.2506 52.4404 61.2506 47.9998Z" fill="#EFEDEE"/>
<path d="M34.6988 71.5871C47.7256 71.5871 58.286 61.0268 58.286 48C58.286 34.9732 47.7256 24.4128 34.6988 24.4128C21.672 24.4128 11.1117 34.9732 11.1117 48C11.1117 61.0268 21.672 71.5871 34.6988 71.5871Z" fill="#FCF0B6"/>
<path d="M19.362 49.0003C19.362 36.4144 29.2189 26.1308 41.6345 25.4491C39.4412 24.7753 37.113 24.4128 34.6988 24.4128C21.6721 24.4128 11.1117 34.9732 11.1117 48C11.1117 61.0267 21.6719 71.5871 34.6988 71.5871C35.1398 71.5871 35.5775 71.5739 36.0124 71.55C26.3712 68.5877 19.362 59.6129 19.362 49.0003Z" fill="#FBE88C"/>
<path d="M34.699 66.8438C45.1062 66.8438 53.5429 58.4071 53.5429 47.9999C53.5429 37.5927 45.1062 29.156 34.699 29.156C24.2918 29.156 15.8551 37.5927 15.8551 47.9999C15.8551 58.4071 24.2918 66.8438 34.699 66.8438Z" fill="#F5C374"/>
<path d="M28.8583 30.0825C21.3159 32.5455 15.8551 39.6459 15.8551 48C15.8551 54.7353 19.4078 60.6572 24.737 63.9896C21.3793 59.9149 19.362 54.6927 19.362 49.0004C19.362 41.2546 23.0924 34.3824 28.8583 30.0825Z" fill="#F3B658"/>
<path d="M67.4336 53.0493C66.8254 53.0483 66.2439 52.7991 65.8237 52.3594L63.0345 49.4419C62.7261 49.1192 62.7375 48.6075 63.0603 48.2989L65.106 46.3434C65.4287 46.0349 65.9404 46.0463 66.249 46.3692L67.4495 47.6249C67.4592 47.6352 67.4754 47.6353 67.4855 47.6254L72.402 42.6946C72.7173 42.3785 73.2291 42.3777 73.5453 42.693L75.5493 44.6913C75.8655 45.0065 75.8662 45.5184 75.5509 45.8345L69.0082 52.3961C68.5905 52.8144 68.024 53.0493 67.4336 53.0493Z" fill="#C5E97D"/>
<path d="M34.6988 23.301C29.1721 23.301 23.9459 25.0869 19.5849 28.4655C19.0996 28.8416 19.011 29.5399 19.387 30.0252C19.7629 30.5106 20.4614 30.5991 20.9467 30.2231C24.9142 27.1491 29.6697 25.5244 34.6987 25.5244C47.0916 25.5244 57.1741 35.6069 57.1741 47.9999C57.1741 60.3928 47.0916 70.4753 34.6987 70.4753C22.3058 70.4753 12.2234 60.3929 12.2234 47.9999C12.2234 42.6173 14.1561 37.4098 17.6657 33.3368C18.0665 32.8717 18.0143 32.1697 17.5492 31.7691C17.0843 31.3684 16.3823 31.4204 15.9814 31.8856C12.1242 36.362 10 42.0847 10 47.9999C10 61.6187 21.0798 72.6987 34.6988 72.6987C48.3179 72.6987 59.3977 61.6187 59.3977 47.9999C59.3977 34.381 48.3179 23.301 34.6988 23.301Z" fill="black"/>
<path d="M48.0626 61.3171C48.5221 61.7244 49.2247 61.682 49.6319 61.2227C52.8708 57.5688 54.6545 52.8728 54.6545 48C54.6545 36.9964 45.7024 28.0444 34.699 28.0444C23.6955 28.0444 14.7434 36.9963 14.7434 47.9999C14.7434 59.0035 23.6955 67.9554 34.699 67.9554C38.6937 67.9554 42.5517 66.7738 45.8555 64.5384C46.3641 64.1943 46.4973 63.5032 46.1533 62.9946C45.8093 62.4862 45.1182 62.3528 44.6095 62.697C41.6749 64.6826 38.248 65.732 34.6991 65.732C24.9215 65.732 16.9669 57.7773 16.9669 47.9999C16.9669 38.2224 24.9215 30.2677 34.6991 30.2677C44.4767 30.2677 52.4313 38.2224 52.4313 47.9999C52.4313 52.3288 50.8463 56.5009 47.9683 59.7477C47.5607 60.2072 47.6033 60.9098 48.0626 61.3171Z" fill="black"/>
<path d="M36.5342 60.7015C37.1483 60.7015 37.6459 60.2037 37.6459 59.5898V57.7374C37.7573 57.7373 37.8516 57.7373 37.9244 57.7373C41.1234 57.7373 43.726 55.1347 43.726 51.9358C43.726 49.7332 42.492 47.8135 40.6792 46.8312C41.5949 45.9055 42.1614 44.6339 42.1614 43.2321C42.1614 40.6134 40.1851 38.449 37.6459 38.1484V36.4103C37.6459 35.7963 37.1483 35.2986 36.5342 35.2986C35.9201 35.2986 35.4225 35.7963 35.4225 36.4103V38.1113H32.8731V36.4103C32.8731 35.7963 32.3755 35.2986 31.7614 35.2986C31.1473 35.2986 30.6497 35.7963 30.6497 36.4103V38.1113H26.7837C26.1696 38.1113 25.672 38.6091 25.672 39.223C25.672 39.837 26.1696 40.3347 26.7837 40.3347H27.9166V55.5345H26.7837C26.1696 55.5345 25.672 56.0322 25.672 56.6462C25.672 57.2601 26.1696 57.7579 26.7837 57.7579C26.7837 57.7579 29.7052 57.7561 30.6497 57.7536V59.5898C30.6497 60.2037 31.1473 60.7015 31.7614 60.7015C32.3755 60.7015 32.8731 60.2037 32.8731 59.5898V57.7478C33.7313 57.7456 34.6231 57.7435 35.4225 57.7417V59.5898C35.4225 60.2037 35.9201 60.7015 36.5342 60.7015ZM39.938 43.2321C39.938 44.8297 38.6381 46.1295 37.0405 46.1295C36.6716 46.1295 30.1398 46.1342 30.1398 46.1342V40.3349H37.0405C38.6381 40.3347 39.938 41.6344 39.938 43.2321ZM30.1398 48.3677C31.2391 48.3649 37.9244 48.3575 37.9244 48.3575C39.8974 48.3575 41.5026 49.9626 41.5026 51.9357C41.5026 53.9087 39.8974 55.5137 37.9244 55.5137C36.952 55.5137 32.3053 55.5257 30.1398 55.5315V48.3677Z" fill="black"/>
<path d="M77.2044 30.1306H57.1597C56.5456 30.1306 56.048 30.6284 56.048 31.2423C56.048 31.8563 56.5456 32.354 57.1597 32.354H77.2044C80.8282 32.354 83.7766 35.3022 83.7766 38.9261V57.3703C83.7766 60.9943 80.8282 63.9426 77.2044 63.9426H56.9325C56.3184 63.9426 55.8208 64.4403 55.8208 65.0543C55.8208 65.6682 56.3184 66.166 56.9325 66.166H77.2044C82.0544 66.166 86 62.2203 86 57.3703V38.9261C86 34.0763 82.0542 30.1306 77.2044 30.1306Z" fill="black"/>
<path d="M58.769 60.3108C58.769 60.9247 59.2666 61.4225 59.8807 61.4225H77.2044C79.4389 61.4225 81.2568 59.6046 81.2568 57.3701V53.5316C81.2568 52.9177 80.7592 52.4199 80.1451 52.4199C79.531 52.4199 79.0334 52.9177 79.0334 53.5316V57.3701C79.0334 58.3786 78.2129 59.1991 77.2044 59.1991H59.8807C59.2666 59.1991 58.769 59.6968 58.769 60.3108Z" fill="black"/>
<path d="M81.2568 38.9261C81.2568 36.6916 79.4388 34.8738 77.2044 34.8738H60.0242C59.4101 34.8738 58.9125 35.3715 58.9125 35.9855C58.9125 36.5994 59.4101 37.0972 60.0242 37.0972H77.2044C78.2129 37.0972 79.0334 37.9176 79.0334 38.9261V48.7943C79.0334 49.4083 79.531 49.906 80.1451 49.906C80.7592 49.906 81.2568 49.4083 81.2568 48.7943V38.9261Z" fill="black"/>
<path d="M67.4315 54.1609H67.4336C68.3261 54.1609 69.1649 53.8128 69.7953 53.1806L76.3382 46.6191C76.7003 46.256 76.8993 45.7733 76.8986 45.2603C76.8977 44.7476 76.6973 44.2657 76.3342 43.9037L74.33 41.9054C73.5807 41.158 72.3626 41.1596 71.6148 41.9094L67.484 46.052L67.0527 45.6008C66.6982 45.2301 66.2207 45.0194 65.7079 45.0079C65.1896 44.9954 64.7088 45.185 64.3379 45.5396L62.2924 47.495C61.9215 47.8494 61.7109 48.327 61.6995 48.8398C61.6879 49.3526 61.8766 49.839 62.2311 50.2099L65.0202 53.1273C65.6463 53.7826 66.5253 54.1592 67.4315 54.1609ZM65.655 47.3564L66.6492 48.3965C66.8597 48.6147 67.1542 48.7414 67.4573 48.7442C67.7606 48.7435 68.0572 48.6256 68.2726 48.4101L72.975 43.6942L74.5495 45.2642L68.221 51.6108C68.0112 51.8211 67.7321 51.9373 67.4352 51.9376C67.1315 51.937 66.8373 51.8107 66.6274 51.5914L64.0478 48.8931L65.655 47.3564Z" fill="black"/>
</g>
<defs>
<clipPath id="clip0_434_259">
<rect width="76" height="76" fill="white" transform="translate(10 10)"/>
</clipPath>
</defs>
</svg>
