<svg width="97" height="98" viewBox="0 0 97 98" fill="none" xmlns="http://www.w3.org/2000/svg">
<circle opacity="0.5" cx="48.4605" cy="48.7432" r="48.4605" fill="url(#paint0_linear_434_260)"/>
<g clip-path="url(#clip0_434_260)">
<path d="M50.0635 65.7356C63.5251 65.7356 74.4378 54.8229 74.4378 41.3613C74.4378 27.8998 63.5251 16.9871 50.0635 16.9871C36.602 16.9871 25.6893 27.8998 25.6893 41.3613C25.6893 54.8229 36.602 65.7356 50.0635 65.7356Z" fill="#E4E1E5"/>
<path d="M35.121 40.3028C35.121 29.42 42.2528 20.2026 52.0981 17.0707C51.4268 17.0152 50.7493 16.9871 50.0636 16.9871C36.602 16.9871 25.6893 27.8998 25.6893 41.3613C25.6893 54.8229 36.602 65.7356 50.0636 65.7356C52.6422 65.7356 55.1259 65.3357 57.4587 64.5936C44.9499 63.5589 35.121 53.0786 35.121 40.3028Z" fill="#D6D1D6"/>
<path d="M45.0296 76.1542C44.2075 76.1542 43.4645 75.8216 42.9266 75.2837C42.3801 74.7387 42.0459 73.9831 42.0548 73.1479C42.0724 71.5051 43.4624 70.2058 45.1052 70.2058H58.8374C62.4323 70.2058 65.8161 71.9072 67.9601 74.7928L78.2304 88.6184C78.624 89.1483 78.2458 89.9005 77.5856 89.9005H59.4945C59.2665 89.9005 59.0493 89.8036 58.8969 89.6341L54.6885 84.9486L39.9911 83.7718C39.6863 83.7484 39.3917 83.6517 39.1323 83.4905L27.149 76.0868C26.3606 75.5988 25.9312 74.7576 25.9312 73.8988C25.9312 73.405 26.0734 72.9038 26.3723 72.4627C27.0347 71.4852 28.2789 71.0836 29.3868 71.4925L42.0545 76.1542H45.0296Z" fill="#FFE6C6"/>
<path d="M77.2245 87.2642H61.4214C60.9413 87.2642 60.4838 87.0602 60.163 86.7029L56.7619 82.9164C56.4135 82.5285 55.9296 82.2891 55.4098 82.2475L41.5218 81.1355C41.217 81.1121 40.9224 81.0153 40.663 80.8541L28.6797 73.4505C27.9788 73.0167 27.5627 72.302 27.4788 71.5457C27.0419 71.735 26.6543 72.0469 26.3725 72.4625C26.0735 72.9036 25.9314 73.4048 25.9314 73.8986C25.9314 74.7574 26.3608 75.5986 27.1492 76.0866L39.1325 83.4903C39.3919 83.6515 39.6864 83.7482 39.9913 83.7716L54.6886 84.9484L58.8971 89.6339C59.0493 89.8034 59.2667 89.9003 59.4946 89.9003H77.5856C78.2458 89.9003 78.624 89.1481 78.2304 88.6181L77.2245 87.2642Z" fill="#F8D3AA"/>
<path d="M43.802 75.8872C44.1764 76.0572 44.591 76.1542 45.0296 76.1542H42.0547C42.0547 77.0369 42.6104 77.8389 43.4511 78.1077C43.9547 78.2688 44.4856 78.3524 45.0297 78.3524H57.3048C58.6664 78.3524 59.7701 77.2488 59.7701 75.8872H43.802Z" fill="#F8D3AA"/>
<path d="M62.2022 70.7158V76.1542H45.0296C44.2075 76.1542 43.4645 75.8216 42.9266 75.2837C42.3873 74.7459 42.0547 74.0029 42.0547 73.1808C42.0547 71.5379 43.3868 70.2058 45.0296 70.2058H58.8374C59.9922 70.2058 61.125 70.3817 62.2022 70.7158Z" fill="#FFE6C6"/>
<path d="M50.0636 59.5089C60.0864 59.5089 68.2114 51.3838 68.2114 41.361C68.2114 31.3382 60.0864 23.2131 50.0636 23.2131C40.0408 23.2131 31.9157 31.3382 31.9157 41.361C31.9157 51.3838 40.0408 59.5089 50.0636 59.5089Z" fill="#F8F7F8"/>
<path d="M42.6596 57.9295C38.0136 53.4912 35.1209 47.2354 35.1209 40.3029C35.1209 35.3371 36.6051 30.7184 39.1552 26.866C34.7606 30.181 31.9155 35.4446 31.9155 41.361C31.9157 48.7329 36.3321 55.0917 42.6596 57.9295Z" fill="#EFEDEE"/>
<path d="M72.9025 24.9752C72.2049 26.5468 71.0735 27.6985 69.4857 28.4085C69.1057 28.5784 69.1043 29.113 69.4824 29.2871C71.0551 30.0113 72.1921 31.1938 72.918 32.8091C73.0823 33.1746 73.6021 33.1854 73.7832 32.8278C74.5913 31.2325 75.8279 30.0862 77.3959 29.2869C77.7526 29.1051 77.7435 28.5954 77.3823 28.4226C75.6905 27.6128 74.4982 26.4549 73.7801 24.9664C73.5999 24.5931 73.0705 24.5963 72.9025 24.9752Z" fill="#FBE88C"/>
<path d="M25.17 48.8039C24.1616 51.0759 22.5262 52.7408 20.2306 53.7672C19.6814 54.0129 19.6795 54.7858 20.2259 55.0374C22.4993 56.0843 24.1432 57.7938 25.1925 60.1289C25.4299 60.6574 26.1815 60.6729 26.4433 60.1562C27.6113 57.8499 29.399 56.1928 31.6658 55.0374C32.1815 54.7745 32.1682 54.0378 31.646 53.7878C29.2003 52.6171 27.4767 50.9431 26.4387 48.7913C26.1783 48.2517 25.4132 48.2563 25.17 48.8039Z" fill="#FBE88C"/>
<path d="M68.8417 74.138C66.5016 70.9878 62.7617 69.1072 58.8373 69.1072H45.029C42.783 69.1072 40.9557 70.9345 40.9557 73.1805C40.9557 73.712 41.0592 74.2195 41.2451 74.6856L29.7663 70.4607C28.1802 69.877 26.4104 70.4468 25.4631 71.8463C24.8978 72.6815 24.7027 73.6845 24.9139 74.6706C25.1251 75.6567 25.714 76.4918 26.5719 77.022L38.5543 84.4259C38.9609 84.6772 39.4278 84.8301 39.9042 84.8682L54.1644 86.0091L58.3188 90.6355C58.5357 90.8773 58.8357 91.0002 59.137 91.0002C59.3984 91.0002 59.6609 90.9075 59.8709 90.719C60.3226 90.3133 60.3599 89.6184 59.9543 89.1669L55.507 84.2143C55.3189 84.0047 55.0576 83.8755 54.7769 83.853L40.0793 82.6773C39.9489 82.6669 39.8213 82.6251 39.71 82.5562L27.7275 75.1523C27.3838 74.94 27.1479 74.6055 27.0633 74.2104C26.9787 73.8153 27.0569 73.4137 27.2834 73.0791C27.663 72.5185 28.3721 72.2901 29.0071 72.5241L41.6752 77.1867C41.7969 77.2314 41.9254 77.2543 42.055 77.2543H51.1515C51.7587 77.2543 52.2507 76.7621 52.2507 76.1551C52.2507 75.5481 51.7587 75.056 51.1515 75.056H45.0277C43.9945 75.0553 43.1541 74.2144 43.1541 73.1809C43.1541 72.1469 43.9953 71.3058 45.0292 71.3058H58.8374C62.0696 71.3058 65.1499 72.8549 67.0773 75.4494L69.301 78.4426C69.5167 78.7329 69.8482 78.8864 70.1841 78.8864C70.412 78.8864 70.6418 78.8157 70.8388 78.6695C71.326 78.3075 71.4276 77.619 71.0656 77.1317L68.8417 74.138Z" fill="black"/>
<path d="M80.0652 89.2454L73.8593 80.892C73.4973 80.4045 72.8088 80.3033 72.3215 80.6651C71.8343 81.0271 71.7327 81.7156 72.0947 82.2028L78.3006 90.5563C78.5163 90.8466 78.8478 91 79.1837 91C79.4116 91 79.6414 90.9294 79.8383 90.7831C80.3256 90.4212 80.427 89.7327 80.0652 89.2454Z" fill="black"/>
<path d="M32.7268 59.8533C37.4485 64.2826 43.6054 66.7219 50.0636 66.7219C64.0477 66.7219 75.4246 55.3451 75.4246 41.3611C75.4246 39.9964 75.3126 38.6184 75.092 37.2656C74.9943 36.6665 74.4295 36.26 73.8304 36.3578C73.2313 36.4555 72.8248 37.0203 72.9225 37.6194C73.1242 38.8557 73.2263 40.1144 73.2263 41.3611C73.2263 54.133 62.8356 64.5237 50.0636 64.5237C44.1664 64.5237 38.5435 62.2957 34.2307 58.2501C33.788 57.8349 33.0922 57.8572 32.6772 58.2998C32.2618 58.7424 32.2841 59.438 32.7268 59.8533Z" fill="black"/>
<path d="M25.9444 45.0976C25.9841 45.0976 26.0241 45.0954 26.0644 45.0911C26.6678 45.0256 27.1039 44.4833 27.0384 43.8798C26.9471 43.0399 26.9009 42.1926 26.9009 41.361C26.9009 34.8934 29.6461 28.6692 34.4328 24.2841C34.8804 23.8741 34.9109 23.1789 34.5008 22.7312C34.0906 22.2836 33.3955 22.2531 32.9478 22.6632C27.708 27.4635 24.7027 34.2786 24.7027 41.361C24.7027 42.2715 24.7534 43.1989 24.8531 44.1172C24.9142 44.6802 25.3905 45.0976 25.9444 45.0976Z" fill="black"/>
<path d="M38.0105 21.5888C41.6351 19.3706 45.8031 18.1982 50.0636 18.1982C56.3804 18.1982 62.2876 20.7061 66.6973 25.2601C66.9129 25.4827 67.1998 25.5947 67.487 25.5947C67.7624 25.5947 68.0381 25.4918 68.2514 25.2852C68.6877 24.863 68.6988 24.167 68.2765 23.731C63.4492 18.7456 56.981 16 50.0636 16C45.3979 16 40.8333 17.2842 36.863 19.7138C36.3453 20.0307 36.1823 20.7073 36.4993 21.2251C36.8163 21.743 37.4927 21.9056 38.0105 21.5888Z" fill="black"/>
<path d="M63.3057 53.8047C63.7722 54.1932 64.4652 54.1304 64.8536 53.6638C67.7275 50.2144 69.3104 45.845 69.3104 41.3608C69.3104 30.748 60.6762 22.1138 50.0634 22.1138C39.4506 22.1138 30.8164 30.748 30.8164 41.3608C30.8164 51.9735 39.4506 60.6077 50.0634 60.6077C54.0623 60.6077 57.8998 59.3871 61.1613 57.078C61.6567 56.7271 61.774 56.0411 61.4231 55.5458C61.0723 55.0505 60.3867 54.9329 59.891 55.2839C57.0031 57.3287 53.6046 58.4097 50.0634 58.4097C40.6627 58.4097 33.0147 50.7616 33.0147 41.3609C33.0147 31.9602 40.6627 24.312 50.0636 24.312C59.4644 24.312 67.1123 31.9601 67.1123 41.3608C67.1123 45.3319 65.7104 49.2014 63.1649 52.2567C62.7764 52.723 62.8394 53.4162 63.3057 53.8047Z" fill="black"/>
<path d="M38.3451 36.6833V46.0381C38.3451 46.6451 38.837 47.1372 39.4442 47.1372C40.0513 47.1372 40.5433 46.6451 40.5433 46.0381V36.6833C40.5433 36.0763 40.0513 35.5842 39.4442 35.5842C38.837 35.5842 38.3451 36.0763 38.3451 36.6833Z" fill="black"/>
<path d="M47.7029 37.7825C48.4202 37.7825 49.1116 37.9935 49.7027 38.393C50.2058 38.733 50.8891 38.6006 51.2288 38.0975C51.5685 37.5944 51.4363 36.9114 50.9332 36.5714C49.9774 35.9255 48.8601 35.5842 47.7028 35.5842C44.5177 35.5842 41.9263 38.1756 41.9263 41.3607C41.9263 44.5458 44.5177 47.1372 47.7028 47.1372C48.9738 47.1372 50.1143 46.7199 51.0009 45.9301C51.1748 45.7752 51.3398 45.6049 51.4918 45.4239C51.8818 44.9588 51.821 44.2656 51.3558 43.8755C50.8905 43.4854 50.1975 43.5464 49.8074 44.0114C49.7238 44.111 49.6334 44.2042 49.5389 44.2886C49.0543 44.7202 48.4367 44.939 47.7029 44.939C45.7298 44.939 44.1247 43.3337 44.1247 41.3607C44.1247 39.3878 45.73 37.7825 47.7029 37.7825Z" fill="black"/>
<path d="M58.1217 35.5842C54.9366 35.5842 52.3452 38.1756 52.3452 41.3607C52.3452 44.5458 54.9366 47.1372 58.1217 47.1372C61.3068 47.1372 63.8982 44.5458 63.8982 41.3607C63.8982 38.1756 61.3069 35.5842 58.1217 35.5842ZM58.1217 44.939C56.1486 44.939 54.5434 43.3337 54.5434 41.3607C54.5434 39.3878 56.1486 37.7825 58.1217 37.7825C60.0948 37.7825 61.7 39.3878 61.7 41.3607C61.7 43.3337 60.0948 44.939 58.1217 44.939Z" fill="black"/>
<path d="M68.1006 28.8391C68.0973 29.4584 68.4589 30.0261 69.0226 30.2855C70.343 30.8935 71.2892 31.8665 71.9153 33.2599C72.1665 33.8185 72.7039 34.1743 73.3178 34.1885C73.3305 34.1888 73.3433 34.189 73.3559 34.189C73.9554 34.189 74.4924 33.8604 74.7635 33.3246C75.4353 31.9984 76.4595 30.998 77.8948 30.2663C78.4344 29.9914 78.7648 29.4446 78.7571 28.8398C78.7495 28.2332 78.4045 27.6936 77.8565 27.4313C76.3978 26.7332 75.3881 25.7706 74.7699 24.4892C74.4978 23.9246 73.9383 23.5791 73.3156 23.5898C72.6938 23.5997 72.1505 23.9596 71.8976 24.5294C71.3026 25.8697 70.3669 26.8104 69.0368 27.4052C68.4716 27.6579 68.104 28.2208 68.1006 28.8391ZM73.3655 26.4471C74.0139 27.4086 74.868 28.2203 75.9189 28.8738C74.8941 29.545 74.0466 30.3709 73.3853 31.343C72.7599 30.323 71.9535 29.4912 70.9749 28.8564C71.9531 28.239 72.7527 27.4332 73.3655 26.4471Z" fill="black"/>
<path d="M25.8251 61.6339C26.506 61.6339 27.1156 61.261 27.4235 60.6529C28.4432 58.6398 29.9941 57.1232 32.165 56.0166C32.7775 55.7043 33.1527 55.0836 33.1442 54.3971C33.1356 53.7078 32.7434 53.0947 32.1207 52.7965C29.9075 51.7372 28.3729 50.271 27.4287 48.314C27.1233 47.6807 26.5032 47.2908 25.805 47.2908C25.7952 47.2908 25.7853 47.2908 25.7753 47.2909C25.0697 47.3021 24.4528 47.7109 24.1656 48.3579H24.1655C23.2542 50.4111 21.8202 51.8524 19.782 52.7638C19.1299 53.0554 18.7223 53.6794 18.7182 54.3922C18.7144 55.1065 19.1158 55.7361 19.7662 56.0356C21.7871 56.9662 23.2341 58.4525 24.1899 60.5794C24.4748 61.2132 25.0849 61.6169 25.782 61.6331C25.7964 61.6336 25.8109 61.6339 25.8251 61.6339ZM21.419 54.4086C23.3301 53.3882 24.8066 51.9022 25.822 49.9774C26.8825 51.826 28.446 53.3188 30.4844 54.4284C28.5015 55.5722 26.9458 57.0921 25.8452 58.9603C24.8025 56.9787 23.3181 55.4522 21.419 54.4086Z" fill="black"/>
</g>
<defs>
<linearGradient id="paint0_linear_434_260" x1="-5.19627e-07" y1="45.5125" x2="94.5981" y2="45.9347" gradientUnits="userSpaceOnUse">
<stop stop-color="#FF7070"/>
<stop offset="1" stop-color="#FF7070" stop-opacity="0.65"/>
</linearGradient>
<clipPath id="clip0_434_260">
<rect width="75" height="75" fill="white" transform="translate(12 16)"/>
</clipPath>
</defs>
</svg>
