<svg width="21" height="11" viewBox="0 0 21 11" fill="none" xmlns="http://www.w3.org/2000/svg">
<path d="M20.5847 2.75076L11.5706 10.7508C11.3879 10.9111 11.1529 10.9995 10.9096 10.9995C10.6663 10.9995 10.4314 10.9111 10.2486 10.7508L1.23452 2.75076C1.04839 2.57227 0.93846 2.32893 0.927639 2.07149C0.916819 1.81405 1.00594 1.56237 1.17643 1.36893C1.34692 1.1755 1.58562 1.05523 1.84275 1.03322C2.09988 1.0112 2.35559 1.08913 2.55658 1.25077L10.9096 8.66075L19.2626 1.25077C19.3602 1.15725 19.4756 1.08442 19.6021 1.03666C19.7285 0.988895 19.8634 0.967189 19.9984 0.972849C20.1335 0.978509 20.2661 1.01142 20.3881 1.06959C20.5101 1.12777 20.619 1.21 20.7083 1.31134C20.7977 1.41268 20.8655 1.53103 20.9078 1.65925C20.9501 1.78747 20.9659 1.92291 20.9543 2.05741C20.9428 2.19191 20.9041 2.32268 20.8406 2.44184C20.777 2.561 20.69 2.66609 20.5847 2.75076Z" fill="#5F4BDB"/>
</svg>
