<svg width="25" height="24" viewBox="0 0 25 24" fill="none" xmlns="http://www.w3.org/2000/svg">
<path d="M13.9922 11.9998C13.9922 11.4479 13.5445 11.0005 12.9922 11.0005C12.4399 11.0005 11.9922 11.4479 11.9922 11.9998C11.9922 12.5517 12.4399 12.9991 12.9922 12.9991C13.5445 12.9991 13.9922 12.5517 13.9922 11.9998Z" stroke="#363848" stroke-width="2" stroke-linecap="round" stroke-linejoin="round"/>
<path d="M6.99219 11.9998C6.99219 11.4479 6.54447 11.0005 5.99219 11.0005C5.4399 11.0005 4.99219 11.4479 4.99219 11.9998C4.99219 12.5517 5.4399 12.9991 5.99219 12.9991C6.54447 12.9991 6.99219 12.5517 6.99219 11.9998Z" stroke="#363848" stroke-width="2" stroke-linecap="round" stroke-linejoin="round"/>
<path d="M20.9922 11.9998C20.9922 11.4479 20.5445 11.0005 19.9922 11.0005C19.4399 11.0005 18.9922 11.4479 18.9922 11.9998C18.9922 12.5517 19.4399 12.9991 19.9922 12.9991C20.5445 12.9991 20.9922 12.5517 20.9922 11.9998Z" stroke="#363848" stroke-width="2" stroke-linecap="round" stroke-linejoin="round"/>
</svg>
