<svg width="22" height="17" viewBox="0 0 22 17" fill="none" xmlns="http://www.w3.org/2000/svg">
<path d="M17.729 6.216C17.456 2.74275 14.5422 0 11 0C7.97 0 5.369 1.968 4.52975 4.83825C2.13575 5.66925 0.5 7.93725 0.5 10.5C0.5 13.8082 3.19175 16.5 6.5 16.5H16.25C19.145 16.5 21.5 14.145 21.5 11.25C21.5 8.88825 19.9475 6.861 17.729 6.216ZM14.693 8.53725C14.5767 8.817 14.303 9 14 9H12.5V12C12.5 12.828 11.828 13.5 11 13.5C10.172 13.5 9.5 12.828 9.5 12V9H8C7.697 9 7.42325 8.817 7.307 8.53725C7.19075 8.25675 7.25525 7.93425 7.46975 7.71975L10.4698 4.71975C10.616 4.5735 10.808 4.5 11 4.5C11.192 4.5 11.384 4.5735 11.5303 4.71975L14.5303 7.71975C14.7448 7.93425 14.8092 8.25675 14.693 8.53725Z" fill="white"/>
</svg>
