<svg width="104" height="16" viewBox="0 0 104 16" fill="none" xmlns="http://www.w3.org/2000/svg">
<g clip-path="url(#clip0_104_285)">
<path d="M15.957 6.1271C15.8337 5.74769 15.4655 5.4869 14.9467 5.41156L10.8326 4.81367L8.99273 1.08568C8.76069 0.615576 8.39888 0.345947 7.99999 0.345947C7.60111 0.345947 7.23929 0.615576 7.00729 1.08568L5.16748 4.81364L1.05332 5.41153C0.534503 5.48687 0.166278 5.74769 0.042995 6.12704C-0.0802569 6.50642 0.0643703 6.93383 0.43972 7.29974L3.41674 10.2015L2.71394 14.2991C2.62154 14.8381 2.77848 15.1604 2.92645 15.3359C3.09951 15.5412 3.35198 15.6542 3.63736 15.6542C3.85312 15.6542 4.0829 15.591 4.32019 15.4662L7.99999 13.5315L11.6798 15.4661C11.9171 15.5909 12.1469 15.6542 12.3627 15.6542H12.3627C12.6482 15.6542 12.9006 15.5412 13.0737 15.3359C13.2216 15.1604 13.3786 14.8381 13.2862 14.2991L12.5833 10.2016L15.5603 7.29981C15.9357 6.93389 16.0803 6.50645 15.957 6.1271Z" fill="#FF8412"/>
</g>
<g clip-path="url(#clip1_104_285)">
<path d="M37.957 6.1271C37.8337 5.74769 37.4655 5.4869 36.9467 5.41156L32.8326 4.81367L30.9927 1.08568C30.7607 0.615576 30.3989 0.345947 30 0.345947C29.6011 0.345947 29.2393 0.615576 29.0073 1.08568L27.1675 4.81364L23.0533 5.41153C22.5345 5.48687 22.1663 5.74769 22.043 6.12704C21.9197 6.50642 22.0644 6.93383 22.4397 7.29974L25.4167 10.2015L24.7139 14.2991C24.6215 14.8381 24.7785 15.1604 24.9264 15.3359C25.0995 15.5412 25.352 15.6542 25.6374 15.6542C25.8531 15.6542 26.0829 15.591 26.3202 15.4662L30 13.5315L33.6798 15.4661C33.9171 15.5909 34.1469 15.6542 34.3627 15.6542H34.3627C34.6482 15.6542 34.9006 15.5412 35.0737 15.3359C35.2216 15.1604 35.3786 14.8381 35.2862 14.2991L34.5833 10.2016L37.5603 7.29981C37.9357 6.93389 38.0803 6.50645 37.957 6.1271Z" fill="#FF8412"/>
</g>
<g clip-path="url(#clip2_104_285)">
<path d="M59.957 6.1271C59.8337 5.74769 59.4655 5.4869 58.9467 5.41156L54.8326 4.81367L52.9927 1.08568C52.7607 0.615576 52.3989 0.345947 52 0.345947C51.6011 0.345947 51.2393 0.615576 51.0073 1.08568L49.1675 4.81364L45.0533 5.41153C44.5345 5.48687 44.1663 5.74769 44.043 6.12704C43.9197 6.50642 44.0644 6.93383 44.4397 7.29974L47.4167 10.2015L46.7139 14.2991C46.6215 14.8381 46.7785 15.1604 46.9264 15.3359C47.0995 15.5412 47.352 15.6542 47.6374 15.6542C47.8531 15.6542 48.0829 15.591 48.3202 15.4662L52 13.5315L55.6798 15.4661C55.9171 15.5909 56.1469 15.6542 56.3627 15.6542H56.3627C56.6482 15.6542 56.9006 15.5412 57.0737 15.3359C57.2216 15.1604 57.3786 14.8381 57.2862 14.2991L56.5833 10.2016L59.5603 7.29981C59.9357 6.93389 60.0803 6.50645 59.957 6.1271Z" fill="#FF8412"/>
</g>
<g clip-path="url(#clip3_104_285)">
<path d="M81.957 6.1271C81.8337 5.74769 81.4655 5.4869 80.9467 5.41156L76.8326 4.81367L74.9927 1.08568C74.7607 0.615576 74.3989 0.345947 74 0.345947C73.6011 0.345947 73.2393 0.615576 73.0073 1.08568L71.1675 4.81364L67.0533 5.41153C66.5345 5.48687 66.1663 5.74769 66.043 6.12704C65.9197 6.50642 66.0644 6.93383 66.4397 7.29974L69.4167 10.2015L68.7139 14.2991C68.6215 14.8381 68.7785 15.1604 68.9264 15.3359C69.0995 15.5412 69.352 15.6542 69.6374 15.6542C69.8531 15.6542 70.0829 15.591 70.3202 15.4662L74 13.5315L77.6798 15.4661C77.9171 15.5909 78.1469 15.6542 78.3627 15.6542H78.3627C78.6482 15.6542 78.9006 15.5412 79.0737 15.3359C79.2216 15.1604 79.3786 14.8381 79.2862 14.2991L78.5833 10.2016L81.5603 7.29981C81.9357 6.93389 82.0803 6.50645 81.957 6.1271Z" fill="#FF8412"/>
</g>
<g clip-path="url(#clip4_104_285)">
<path d="M103.957 6.1271C103.834 5.74769 103.465 5.4869 102.947 5.41156L98.8326 4.81367L96.9927 1.08568C96.7607 0.615576 96.3989 0.345947 96 0.345947C95.6011 0.345947 95.2393 0.615576 95.0073 1.08568L93.1675 4.81364L89.0533 5.41153C88.5345 5.48687 88.1663 5.74769 88.043 6.12704C87.9197 6.50642 88.0644 6.93383 88.4397 7.29974L91.4167 10.2015L90.7139 14.2991C90.6215 14.8381 90.7785 15.1604 90.9264 15.3359C91.0995 15.5412 91.352 15.6542 91.6374 15.6542C91.8531 15.6542 92.0829 15.591 92.3202 15.4662L96 13.5315L99.6798 15.4661C99.9171 15.5909 100.147 15.6542 100.363 15.6542H100.363C100.648 15.6542 100.901 15.5412 101.074 15.3359C101.222 15.1604 101.379 14.8381 101.286 14.2991L100.583 10.2016L103.56 7.29981C103.936 6.93389 104.08 6.50645 103.957 6.1271Z" fill="#D8D8D8"/>
</g>
<defs>
<clipPath id="clip0_104_285">
<rect width="16" height="16" fill="white"/>
</clipPath>
<clipPath id="clip1_104_285">
<rect width="16" height="16" fill="white" transform="translate(22)"/>
</clipPath>
<clipPath id="clip2_104_285">
<rect width="16" height="16" fill="white" transform="translate(44)"/>
</clipPath>
<clipPath id="clip3_104_285">
<rect width="16" height="16" fill="white" transform="translate(66)"/>
</clipPath>
<clipPath id="clip4_104_285">
<rect width="16" height="16" fill="white" transform="translate(88)"/>
</clipPath>
</defs>
</svg>
