<svg width="21" height="11" viewBox="0 0 21 11" fill="none" xmlns="http://www.w3.org/2000/svg">
<path d="M19.8193 2.75072L10.8052 10.7507C10.6225 10.911 10.3875 10.9994 10.1442 10.9994C9.90091 10.9994 9.66594 10.911 9.48317 10.7507L0.469105 2.75072C0.282982 2.57222 0.173049 2.32889 0.162228 2.07144C0.151407 1.814 0.240533 1.56232 0.411023 1.36889C0.581513 1.17545 0.820207 1.05519 1.07734 1.03317C1.33446 1.01116 1.59018 1.08909 1.79117 1.25072L10.1442 8.66071L18.4972 1.25072C18.5947 1.15721 18.7102 1.08438 18.8367 1.03661C18.9631 0.988849 19.0979 0.967143 19.233 0.972803C19.3681 0.978463 19.5007 1.01137 19.6227 1.06955C19.7447 1.12772 19.8536 1.20996 19.9429 1.3113C20.0322 1.41264 20.1001 1.53098 20.1424 1.6592C20.1846 1.78742 20.2005 1.92286 20.1889 2.05736C20.1774 2.19186 20.1387 2.32263 20.0752 2.44179C20.0116 2.56095 19.9246 2.66604 19.8193 2.75072Z" fill="#5F4BDB"/>
</svg>
